<svg width="16" height="14" viewBox="0 0 16 14" fill="none" xmlns="http://www.w3.org/2000/svg">
<path d="M13.6666 4.33333V9.8C13.6666 10.9201 13.6666 11.4802 13.4487 11.908C13.2569 12.2843 12.951 12.5903 12.5746 12.782C12.1468 13 11.5868 13 10.4666 13H5.53331C4.41321 13 3.85316 13 3.42533 12.782C3.04901 12.5903 2.74305 12.2843 2.5513 11.908C2.33331 11.4802 2.33331 10.9201 2.33331 9.8V4.33333M2.39998 1H13.6C13.9733 1 14.16 1 14.3026 1.07266C14.4281 1.13658 14.5301 1.23856 14.594 1.36401C14.6666 1.50661 14.6666 1.6933 14.6666 2.06667V3.26667C14.6666 3.64004 14.6666 3.82672 14.594 3.96933C14.5301 4.09477 14.4281 4.19676 14.3026 4.26067C14.16 4.33333 13.9733 4.33333 13.6 4.33333H2.39998C2.02661 4.33333 1.83993 4.33333 1.69732 4.26067C1.57188 4.19676 1.46989 4.09477 1.40598 3.96933C1.33331 3.82672 1.33331 3.64004 1.33331 3.26667V2.06667C1.33331 1.6933 1.33331 1.50661 1.40598 1.36401C1.46989 1.23856 1.57188 1.13658 1.69732 1.07266C1.83993 1 2.02661 1 2.39998 1ZM6.39998 6.66667H9.59998C9.97335 6.66667 10.16 6.66667 10.3026 6.73933C10.4281 6.80324 10.5301 6.90523 10.594 7.03067C10.6666 7.17328 10.6666 7.35997 10.6666 7.73333V8.26667C10.6666 8.64003 10.6666 8.82672 10.594 8.96933C10.5301 9.09477 10.4281 9.19676 10.3026 9.26067C10.16 9.33333 9.97335 9.33333 9.59998 9.33333H6.39998C6.02661 9.33333 5.83993 9.33333 5.69732 9.26067C5.57188 9.19676 5.46989 9.09477 5.40598 8.96933C5.33331 8.82672 5.33331 8.64003 5.33331 8.26667V7.73333C5.33331 7.35997 5.33331 7.17328 5.40598 7.03067C5.46989 6.90523 5.57188 6.80324 5.69732 6.73933C5.83993 6.66667 6.02661 6.66667 6.39998 6.66667Z" stroke="#333333" stroke-width="1.2" stroke-linecap="round" stroke-linejoin="round"/>
</svg>
