<svg width="16" height="14" viewBox="0 0 16 14" fill="none" xmlns="http://www.w3.org/2000/svg">
<path d="M8.66665 3.66667L7.92295 2.17928C7.70892 1.7512 7.60189 1.53715 7.44223 1.38078C7.30103 1.24249 7.13086 1.13732 6.94403 1.07287C6.73276 1 6.49345 1 6.01484 1H3.46665C2.71991 1 2.34654 1 2.06133 1.14532C1.81044 1.27316 1.60647 1.47713 1.47864 1.72801C1.33331 2.01323 1.33331 2.3866 1.33331 3.13333V3.66667M1.33331 3.66667H11.4666C12.5868 3.66667 13.1468 3.66667 13.5746 3.88465C13.951 4.0764 14.2569 4.38236 14.4487 4.75869C14.6666 5.18651 14.6666 5.74656 14.6666 6.86667V9.8C14.6666 10.9201 14.6666 11.4802 14.4487 11.908C14.2569 12.2843 13.951 12.5903 13.5746 12.782C13.1468 13 12.5868 13 11.4666 13H4.53331C3.41321 13 2.85316 13 2.42533 12.782C2.04901 12.5903 1.74305 12.2843 1.5513 11.908C1.33331 11.4802 1.33331 10.9201 1.33331 9.8V3.66667ZM10.3333 10.6667L9.33331 9.66667M9.99998 8C9.99998 9.28866 8.95531 10.3333 7.66665 10.3333C6.37798 10.3333 5.33331 9.28866 5.33331 8C5.33331 6.71134 6.37798 5.66667 7.66665 5.66667C8.95531 5.66667 9.99998 6.71134 9.99998 8Z" stroke="#333333" stroke-width="1.2" stroke-linecap="round" stroke-linejoin="round"/>
</svg>
