<svg width="16" height="14" viewBox="0 0 16 14" fill="none" xmlns="http://www.w3.org/2000/svg">
<path d="M14.6666 5H1.33331M9.33331 10.6667L11 9L9.33331 7.33333M6.66665 7.33333L4.99998 9L6.66665 10.6667M1.33331 4.2L1.33331 9.8C1.33331 10.9201 1.33331 11.4802 1.5513 11.908C1.74305 12.2843 2.04901 12.5903 2.42533 12.782C2.85316 13 3.41321 13 4.53331 13H11.4666C12.5868 13 13.1468 13 13.5746 12.782C13.951 12.5903 14.2569 12.2843 14.4487 11.908C14.6666 11.4802 14.6666 10.9201 14.6666 9.8V4.2C14.6666 3.0799 14.6666 2.51984 14.4487 2.09202C14.2569 1.7157 13.951 1.40973 13.5746 1.21799C13.1468 1 12.5868 1 11.4666 1L4.53331 1C3.41321 1 2.85316 1 2.42533 1.21799C2.04901 1.40973 1.74305 1.71569 1.5513 2.09202C1.33331 2.51984 1.33331 3.0799 1.33331 4.2Z" stroke="#333333" stroke-width="1.2" stroke-linecap="round" stroke-linejoin="round"/>
</svg>
