<svg width="60" height="60" viewBox="0 0 96 96" fill="none" xmlns="http://www.w3.org/2000/svg">
<path d="M4 48C4 53.7782 5.13809 59.4997 7.3493 64.8381C9.56051 70.1764 12.8015 75.0269 16.8873 79.1127C20.9731 83.1985 25.8236 86.4395 31.1619 88.6507C36.5003 90.8619 42.2218 92 48 92C53.7782 92 59.4997 90.8619 64.8381 88.6507C70.1764 86.4395 75.0269 83.1985 79.1127 79.1127C83.1985 75.0269 86.4395 70.1764 88.6507 64.8381C90.8619 59.4997 92 53.7782 92 48C92 36.3305 87.3643 25.1389 79.1127 16.8873C70.8611 8.6357 59.6695 4 48 4C36.3305 4 25.1389 8.6357 16.8873 16.8873C8.6357 25.1389 4 36.3305 4 48V48Z" fill="#4BC310"/>
<path d="M29.656 44L24 49.656L42.824 68.484L73.656 37.656L68 32L42.824 57.164L29.656 44Z" fill="white"/>
</svg>
