<svg width="48" height="48" viewBox="0 0 48 48" fill="none" xmlns="http://www.w3.org/2000/svg">
<g clip-path="url(#clip0_3094_13782)">
<path d="M42.9969 5.01525C38.4684 0.504188 31.957 0 24 0C16.0329 0 9.51169 0.51 4.98506 5.03325C0.459094 9.55463 0 16.0654 0 24.0233C0 31.9826 0.459094 38.4953 4.98694 43.0183C9.51328 47.5422 16.0338 48.0001 24 48.0001C31.9663 48.0001 38.4857 47.5422 43.012 43.0183C47.5396 38.4945 48 31.9826 48 24.0233C48 16.0552 47.5346 9.53738 42.9969 5.01525Z" fill="#4686F3" fill-opacity="0.1"/>
<path fill-rule="evenodd" clip-rule="evenodd" d="M17.5 13C15.8431 13 14.5 14.3431 14.5 16V20.0095C14.4175 20.0032 14.3341 20 14.25 20C12.4551 20 11 21.4551 11 23.25V31.5C11 33.1569 12.3431 34.5 14 34.5H14.5V35.5H16.5V34.5H31.5V35.5H33.5V34.5H34C35.6569 34.5 37 33.1569 37 31.5V23.25C37 21.4551 35.5449 20 33.75 20C33.6659 20 33.5825 20.0032 33.5 20.0095V16C33.5 14.3431 32.1569 13 30.5 13H17.5ZM31.5 20.9048V16C31.5 15.4477 31.0523 15 30.5 15H17.5C16.9477 15 16.5 15.4477 16.5 16V20.9048C17.1163 21.4963 17.5 22.3283 17.5 23.25V27.5H30.5V23.25C30.5 22.3283 30.8837 21.4963 31.5 20.9048ZM13 23.25C13 22.5596 13.5596 22 14.25 22C14.9404 22 15.5 22.5596 15.5 23.25V29.5H32.5V23.25C32.5 22.5596 33.0596 22 33.75 22C34.4404 22 35 22.5596 35 23.25V31.5C35 32.0523 34.5523 32.5 34 32.5H14C13.4477 32.5 13 32.0523 13 31.5V23.25Z" fill="#4686F3"/>
</g>
<defs>
<clipPath id="clip0_3094_13782">
<rect width="48" height="48" rx="16" fill="white"/>
</clipPath>
</defs>
</svg>
