<svg width="48" height="48" viewBox="0 0 48 48" fill="none" xmlns="http://www.w3.org/2000/svg">
<path d="M42.9969 5.01525C38.4684 0.504188 31.957 0 24 0C16.0329 0 9.51169 0.51 4.98506 5.03325C0.459094 9.55463 0 16.0654 0 24.0233C0 31.9826 0.459094 38.4953 4.98694 43.0183C9.51328 47.5422 16.0338 48.0001 24 48.0001C31.9663 48.0001 38.4857 47.5422 43.012 43.0183C47.5396 38.4945 48 31.9826 48 24.0233C48 16.0552 47.5346 9.53738 42.9969 5.01525Z" fill="#4686F3" fill-opacity="0.1"/>
<path fill-rule="evenodd" clip-rule="evenodd" d="M11.1304 22.7681L10.9472 22.5849C9.42897 21.0666 10.0393 18.4814 12.0762 17.8025L33.5239 10.6532C35.7819 9.90056 37.93 12.0487 37.1773 14.3067L30.0281 35.7544C29.3491 37.7913 26.7639 38.4016 25.2457 36.8834L25.0624 36.7001L19.9325 27.8981L11.1304 22.7681ZM34.1564 12.5506C34.8508 12.3191 35.5115 12.9798 35.28 13.6742L28.1307 35.1219C27.9219 35.7484 27.1268 35.9361 26.6599 35.4691L21.9155 27.3286L30.8242 18.42C31.2147 18.0295 31.2147 17.3963 30.8242 17.0058C30.4337 16.6152 29.8005 16.6152 29.41 17.0058L20.5012 25.9146L12.3614 21.1706C11.8945 20.7037 12.0822 19.9086 12.7086 19.6998L34.1564 12.5506Z" fill="#4686F3"/>
</svg>
