<svg width="48" height="48" viewBox="0 0 48 48" fill="none" xmlns="http://www.w3.org/2000/svg">
<path d="M42.9969 5.01525C38.4684 0.504188 31.957 0 24 0C16.0329 0 9.51169 0.51 4.98506 5.03325C0.459094 9.55463 0 16.0654 0 24.0233C0 31.9826 0.459094 38.4953 4.98694 43.0183C9.51328 47.5422 16.0338 48.0001 24 48.0001C31.9663 48.0001 38.4857 47.5422 43.012 43.0183C47.5396 38.4945 48 31.9826 48 24.0233C48 16.0552 47.5346 9.53738 42.9969 5.01525Z" fill="#4686F3" fill-opacity="0.1"/>
<path d="M22.6103 21.3449C22.5799 21.0383 22.4494 20.8002 22.2189 20.6304C21.9883 20.4606 21.6754 20.3758 21.2801 20.3758C21.0116 20.3758 20.7848 20.4138 20.5999 20.4898C20.4149 20.5633 20.273 20.6659 20.1742 20.7976C20.0779 20.9294 20.0298 21.0789 20.0298 21.2461C20.0247 21.3854 20.0538 21.507 20.1172 21.6109C20.1831 21.7148 20.273 21.8048 20.387 21.8808C20.501 21.9542 20.6328 22.0188 20.7823 22.0746C20.9318 22.1278 21.0914 22.1734 21.2611 22.2114L21.9604 22.3786C22.2999 22.4546 22.6116 22.556 22.8953 22.6827C23.1791 22.8093 23.4249 22.9652 23.6326 23.1501C23.8404 23.3351 24.0013 23.553 24.1153 23.8038C24.2318 24.0546 24.2914 24.3422 24.2939 24.6665C24.2914 25.1428 24.1698 25.5558 23.9291 25.9055C23.6909 26.2526 23.3463 26.5224 22.8953 26.715C22.4469 26.905 21.9059 27 21.2725 27C20.6442 27 20.0969 26.9037 19.6307 26.7112C19.1671 26.5186 18.8048 26.2336 18.5438 25.8561C18.2854 25.476 18.1498 25.006 18.1371 24.4461H19.7295C19.7473 24.707 19.822 24.9249 19.9538 25.0998C20.0881 25.2721 20.2667 25.4025 20.4896 25.4912C20.7151 25.5774 20.9698 25.6204 21.2535 25.6204C21.5322 25.6204 21.7742 25.5799 21.9794 25.4988C22.1872 25.4177 22.3481 25.305 22.4621 25.1606C22.5761 25.0162 22.6331 24.8502 22.6331 24.6627C22.6331 24.4879 22.5812 24.3409 22.4773 24.2219C22.3759 24.1028 22.2265 24.0014 22.0288 23.9178C21.8337 23.8342 21.5943 23.7582 21.3105 23.6898L20.463 23.477C19.8068 23.3173 19.2887 23.0678 18.9086 22.7283C18.5286 22.3888 18.3398 21.9314 18.3424 21.3563C18.3398 20.885 18.4653 20.4733 18.7186 20.1211C18.9745 19.769 19.3254 19.4941 19.7713 19.2964C20.2173 19.0988 20.724 19 21.2915 19C21.8692 19 22.3734 19.0988 22.8041 19.2964C23.2374 19.4941 23.5744 19.769 23.8151 20.1211C24.0557 20.4733 24.1799 20.8812 24.1875 21.3449H22.6103Z" fill="#4686F3"/>
<path d="M17.6456 19.1064V26.8898H16V19.1064H17.6456Z" fill="#4686F3"/>
<path d="M28.0767 25.02L26.1954 19.1064H24.3674L27.0543 26.8898H29.175L31.8581 19.1064H30.0339L28.1489 25.02H28.0767Z" fill="#4686F3"/>
<path fill-rule="evenodd" clip-rule="evenodd" d="M10 15C10 13.3431 11.3431 12 13 12H35C36.6569 12 38 13.3431 38 15V30C38 31.6569 36.6569 33 35 33H13C11.3431 33 10 31.6569 10 30V15ZM13 14C12.4477 14 12 14.4477 12 15V30C12 30.5523 12.4477 31 13 31H35C35.5523 31 36 30.5523 36 30V15C36 14.4477 35.5523 14 35 14H13Z" fill="#4686F3"/>
<path d="M14 35C14 34.4477 14.4477 34 15 34H33C33.5523 34 34 34.4477 34 35C34 35.5523 33.5523 36 33 36H15C14.4477 36 14 35.5523 14 35Z" fill="#4686F3"/>
</svg>
