<svg width="48" height="48" viewBox="0 0 48 48" fill="none" xmlns="http://www.w3.org/2000/svg">
<path d="M42.9969 5.01525C38.4684 0.504188 31.957 0 24 0C16.0329 0 9.51169 0.51 4.98506 5.03325C0.459094 9.55463 0 16.0654 0 24.0233C0 31.9826 0.459094 38.4953 4.98694 43.0183C9.51328 47.5422 16.0338 48.0001 24 48.0001C31.9663 48.0001 38.4857 47.5422 43.012 43.0183C47.5396 38.4945 48 31.9826 48 24.0233C48 16.0552 47.5346 9.53738 42.9969 5.01525Z" fill="#4686F3" fill-opacity="0.1"/>
<path d="M16.75 22.9026L17.4488 24.0582C18.1356 23.6641 18.8135 23.2131 19.4824 22.7055C20.1513 22.1919 20.641 21.7529 20.9516 21.3886C21.298 21.8126 21.8056 22.2904 22.4745 22.8219C23.1494 23.3475 23.7974 23.7686 24.4185 24.0851L25.0904 22.8936C23.4898 22.0754 22.2864 21.1109 21.4801 20H20.432C20.0677 20.5136 19.56 21.0272 18.909 21.5409C18.258 22.0545 17.5384 22.5084 16.75 22.9026Z" fill="#4686F3"/>
<path d="M21.7399 25.3393H23.9348V24.103H21.7399V22.5622L20.4857 22.5174V26.7548H19.2853V23.8701L18.0669 23.8253V26.7548H17.0546V28H24.7231V26.7548H21.7399V25.3393Z" fill="#4686F3"/>
<path fill-rule="evenodd" clip-rule="evenodd" d="M9 18C9 16.3431 10.3431 15 12 15H30C31.6569 15 33 16.3431 33 18V18.369L34.747 17.3739L34.7508 17.3718C36.6353 16.3092 39 17.6444 39 19.8333V28.1691C39 30.3313 36.6427 31.6974 34.7508 30.6306L33 29.6334V30C33 31.6569 31.6569 33 30 33H12C10.3431 33 9 31.6569 9 30V18ZM33 27.3318V20.6706L35.7346 19.1131C36.3136 18.788 37 19.2075 37 19.8333V28.1691C37 28.785 36.3063 29.2101 35.7347 28.8893L35.7331 28.8884L33 27.3318ZM12 17C11.4477 17 11 17.4477 11 18V30C11 30.5523 11.4477 31 12 31H30C30.5523 31 31 30.5523 31 30V18C31 17.4477 30.5523 17 30 17H12Z" fill="#4686F3"/>
</svg>
