<svg width="48" height="48" viewBox="0 0 48 48" fill="none" xmlns="http://www.w3.org/2000/svg">
<path d="M42.9969 5.01525C38.4684 0.504188 31.957 0 24 0C16.0329 0 9.51169 0.51 4.98506 5.03325C0.459094 9.55463 0 16.0654 0 24.0233C0 31.9826 0.459094 38.4953 4.98694 43.0183C9.51328 47.5422 16.0338 48.0001 24 48.0001C31.9663 48.0001 38.4857 47.5422 43.012 43.0183C47.5396 38.4945 48 31.9826 48 24.0233C48 16.0552 47.5346 9.53738 42.9969 5.01525Z" fill="#4686F3" fill-opacity="0.1"/>
<path d="M19.0002 17.5C19.0002 17.9443 18.807 18.3434 18.5002 18.6181V21C18.5002 21.5523 18.9479 22 19.5001 22H25.5002C26.0524 22 26.5002 21.5523 26.5002 21V18.6181C26.1933 18.3434 26.0001 17.9443 26.0001 17.5C26.0001 16.6716 26.6717 16 27.5001 16C28.3286 16 29.0001 16.6716 29.0001 17.5C29.0001 17.9442 28.807 18.3434 28.5002 18.6181V21C28.5002 22.6569 27.157 24 25.5002 24H19.5001C17.8433 24 16.5002 22.6569 16.5002 21V18.6181C16.1933 18.3434 16.0002 17.9443 16.0002 17.5C16.0002 16.6716 16.6717 16 17.5002 16C18.3286 16 19.0002 16.6716 19.0002 17.5Z" fill="#4686F3"/>
<path fill-rule="evenodd" clip-rule="evenodd" d="M12.6235 13.7148C12.7705 12.1754 14.0636 11 15.6099 11H32.3904C33.9368 11 35.2298 12.1754 35.3768 13.7148L37.2865 33.7148C37.4547 35.4763 36.0696 37 34.3001 37H13.7002C11.9307 37 10.5456 35.4763 10.7138 33.7148L12.6235 13.7148ZM15.6099 13H29.3904C29.9058 13 30.3368 13.3918 30.3858 13.9049L32.2956 33.9049C32.3516 34.4921 31.8899 35 31.3001 35H13.7002C13.1104 35 12.6487 34.4921 12.7047 33.9049L14.6145 13.9049C14.6635 13.3918 15.0945 13 15.6099 13ZM32.3768 13.7148C32.353 13.4659 32.2993 13.2265 32.2193 13H32.3904C32.9058 13 33.3368 13.3918 33.3858 13.9049L35.2956 33.9049C35.3516 34.4921 34.8899 35 34.3001 35H34.1297C34.2708 34.6016 34.3296 34.166 34.2865 33.7148L32.3768 13.7148Z" fill="#4686F3"/>
</svg>
