<svg width="48" height="48" viewBox="0 0 48 48" fill="none" xmlns="http://www.w3.org/2000/svg">
<path d="M42.9969 5.01525C38.4684 0.504188 31.957 0 24 0C16.0329 0 9.51169 0.51 4.98506 5.03325C0.459094 9.55463 0 16.0654 0 24.0233C0 31.9826 0.459094 38.4953 4.98694 43.0183C9.51328 47.5422 16.0338 48.0001 24 48.0001C31.9663 48.0001 38.4857 47.5422 43.012 43.0183C47.5396 38.4945 48 31.9826 48 24.0233C48 16.0552 47.5346 9.53738 42.9969 5.01525Z" fill="#4686F3" fill-opacity="0.1"/>
<path fill-rule="evenodd" clip-rule="evenodd" d="M19.3331 27.8184H21.1456L21.739 25.9941H24.6275L25.2198 27.8184H27.0323L24.2745 19.8184H22.0948L19.3331 27.8184ZM24.1988 24.6738L23.2159 21.6465H23.1534L22.1685 24.6738H24.1988Z" fill="#4686F3"/>
<path d="M29.058 27.8184V19.8184H27.3666V27.8184H29.058Z" fill="#4686F3"/>
<path fill-rule="evenodd" clip-rule="evenodd" d="M14.6859 21.0646C14.7317 20.9503 14.7556 20.8279 14.7593 20.7048C14.9383 14.7715 19.8098 10 25.7722 10C31.8475 10 36.7901 14.9539 36.7901 21.0432C36.7901 23.9124 35.6702 26.6665 33.6931 28.718C33.5042 28.914 33.3915 29.173 33.3915 29.4452V34.4086C33.3915 34.8785 33.0644 35.285 32.6054 35.3855L21.0574 37.9139C20.4337 38.0504 19.8435 37.5755 19.8435 36.937V34.8374C19.8435 34.2851 19.3958 33.8374 18.8435 33.8374H15.7542C15.2019 33.8374 14.7542 33.3897 14.7542 32.8374V30.504C14.7542 30.0322 14.4244 29.6246 13.9631 29.5261L12.6617 29.2481C12.055 29.1185 11.7115 28.4734 11.9426 27.8976L14.6859 21.0646ZM25.7722 12C20.8986 12 16.905 15.9047 16.7584 20.7651C16.7482 21.1045 16.682 21.4608 16.5419 21.8097L14.2412 27.5404L14.3808 27.5702C15.765 27.8658 16.7542 29.0887 16.7542 30.504V31.8374H18.8435C20.5004 31.8374 21.8435 33.1805 21.8435 34.8374V35.6944L31.3915 33.6039V29.4452C31.3915 28.615 31.7339 27.8688 32.253 27.3301C33.8725 25.6497 34.7901 23.3925 34.7901 21.0432C34.7901 16.0542 30.7386 12 25.7722 12Z" fill="#4686F3"/>
</svg>
