<svg width="48" height="48" viewBox="0 0 48 48" fill="none" xmlns="http://www.w3.org/2000/svg">
<g clip-path="url(#clip0_3094_13771)">
<path d="M42.9969 5.01525C38.4684 0.504188 31.957 0 24 0C16.0329 0 9.51169 0.51 4.98506 5.03325C0.459094 9.55463 0 16.0654 0 24.0233C0 31.9826 0.459094 38.4953 4.98694 43.0183C9.51328 47.5422 16.0338 48.0001 24 48.0001C31.9663 48.0001 38.4857 47.5422 43.012 43.0183C47.5396 38.4945 48 31.9826 48 24.0233C48 16.0552 47.5346 9.53738 42.9969 5.01525Z" fill="#4686F3" fill-opacity="0.1"/>
<path fill-rule="evenodd" clip-rule="evenodd" d="M20 19.7735C20 18.1001 21.8032 17.066 23.2485 17.8857L23.2522 17.8879L27.9151 20.5591C29.3616 21.4011 29.3616 23.4815 27.9151 24.3235L27.9091 24.327L23.2485 26.9969C21.7958 27.8208 20 26.7624 20 25.1091V19.7735ZM22.2607 19.6248C22.1383 19.5564 22 19.6454 22 19.7735V25.1091C22 25.168 22.027 25.2192 22.0877 25.2546C22.1179 25.2723 22.1489 25.2803 22.1756 25.281C22.1988 25.2816 22.2263 25.2771 22.2606 25.2579L26.9107 22.594C27.0298 22.5231 27.0298 22.3595 26.9107 22.2886L22.2607 19.6248Z" fill="#4686F3"/>
<path fill-rule="evenodd" clip-rule="evenodd" d="M10 15C10 13.3431 11.3431 12 13 12H35C36.6569 12 38 13.3431 38 15V30C38 31.6569 36.6569 33 35 33H13C11.3431 33 10 31.6569 10 30V15ZM13 14C12.4477 14 12 14.4477 12 15V30C12 30.5523 12.4477 31 13 31H35C35.5523 31 36 30.5523 36 30V15C36 14.4477 35.5523 14 35 14H13Z" fill="#4686F3"/>
<path d="M15 34C14.4477 34 14 34.4477 14 35C14 35.5523 14.4477 36 15 36H33C33.5523 36 34 35.5523 34 35C34 34.4477 33.5523 34 33 34H15Z" fill="#4686F3"/>
</g>
<defs>
<clipPath id="clip0_3094_13771">
<rect width="48" height="48" rx="16" fill="white"/>
</clipPath>
</defs>
</svg>
