<svg width="48" height="48" viewBox="0 0 48 48" fill="none" xmlns="http://www.w3.org/2000/svg">
<path d="M42.9969 5.01525C38.4684 0.504188 31.957 0 24 0C16.0329 0 9.51169 0.51 4.98506 5.03325C0.459094 9.55463 0 16.0654 0 24.0233C0 31.9826 0.459094 38.4953 4.98694 43.0183C9.51328 47.5422 16.0338 48.0001 24 48.0001C31.9663 48.0001 38.4857 47.5422 43.012 43.0183C47.5396 38.4945 48 31.9826 48 24.0233C48 16.0552 47.5346 9.53738 42.9969 5.01525Z" fill="#4686F3" fill-opacity="0.1"/>
<path d="M21.5827 26H19.6773L17 18.0013H18.8333L20.6267 24.2773H20.7027L22.48 18.0013H24.236L21.5827 26Z" fill="#4686F3"/>
<path fill-rule="evenodd" clip-rule="evenodd" d="M25 18.0013H28.1933V18C29.9693 18 31 19.004 31 20.5333C31 21.7053 30.2733 22.4973 29.5467 22.7773L31.152 26H29.3827L27.9827 23.0173H26.564V26H25V18.0013ZM26.564 19.244V21.8293H27.9413C28.82 21.8293 29.364 21.4067 29.364 20.5627C29.364 19.7067 28.804 19.244 27.964 19.244H26.564Z" fill="#4686F3"/>
<path fill-rule="evenodd" clip-rule="evenodd" d="M10 14C10 12.3431 11.3431 11 13 11H35C36.6569 11 38 12.3431 38 14V29C38 30.6569 36.6569 32 35 32H13C11.3431 32 10 30.6569 10 29V14ZM13 13C12.4477 13 12 13.4477 12 14V29C12 29.5523 12.4477 30 13 30H35C35.5523 30 36 29.5523 36 29V14C36 13.4477 35.5523 13 35 13H13Z" fill="#4686F3"/>
<path d="M14 34C14 33.4477 14.4477 33 15 33H33C33.5523 33 34 33.4477 34 34C34 34.5523 33.5523 35 33 35H15C14.4477 35 14 34.5523 14 34Z" fill="#4686F3"/>
</svg>
