<svg width="16" height="16" viewBox="0 0 16 16" fill="none" xmlns="http://www.w3.org/2000/svg">
<path fill-rule="evenodd" clip-rule="evenodd" d="M1.01709 5.81223V1.62881C1.01709 1.20106 1.25556 1 1.64588 1H5.8293C6.12444 1 6.36399 1.23955 6.36399 1.53469C6.36399 1.82983 6.12444 2.06938 5.8293 2.06938H2.81042L6.21106 5.46895C6.41104 5.66893 6.41104 5.99296 6.21106 6.19399C6.01004 6.39397 5.68601 6.39397 5.48604 6.19399L2.08647 2.79335V5.81223C2.08647 6.10736 1.84693 6.34692 1.55178 6.34692C1.25663 6.34692 1.01709 6.10736 1.01709 5.81223ZM10.14 1H14.3234C14.7148 1 14.9522 1.20106 14.9522 1.62881V5.81223C14.9522 6.10736 14.7127 6.34692 14.4175 6.34692C14.1224 6.34692 13.8828 6.10736 13.8828 5.81223V2.79335L10.4833 6.19399C10.2833 6.39397 9.95927 6.39397 9.75823 6.19399C9.55825 5.99296 9.55825 5.66892 9.75823 5.46895L13.1589 2.06938H10.14C9.84486 2.06938 9.60531 1.82984 9.60531 1.53469C9.60531 1.23955 9.84486 1 10.14 1ZM1.64588 14.902H5.82932C6.12445 14.902 6.36401 14.6624 6.36401 14.3673C6.36401 14.0721 6.12445 13.8326 5.82932 13.8326H2.81044L6.21108 10.433C6.41106 10.2331 6.41106 9.90902 6.21108 9.708C6.01005 9.50802 5.68602 9.50802 5.48606 9.708L2.08649 13.1086V10.0898C2.08649 9.79462 1.84695 9.55507 1.5518 9.55507C1.25664 9.55507 1.01711 9.79462 1.01711 10.0898V14.2732C1.01709 14.7009 1.25556 14.902 1.64588 14.902ZM14.9522 10.0898V14.2732C14.9522 14.7009 14.7148 14.902 14.3234 14.902H10.14C9.84486 14.902 9.60531 14.6624 9.60531 14.3673C9.60531 14.0721 9.84486 13.8326 10.14 13.8326H13.1589L9.75823 10.433C9.55825 10.2331 9.55825 9.90903 9.75823 9.708C9.95925 9.50802 10.2833 9.50802 10.4833 9.708L13.8828 13.1086V10.0898C13.8828 9.79462 14.1224 9.55507 14.4175 9.55507C14.7127 9.55507 14.9522 9.79462 14.9522 10.0898Z" fill="#666666"/>
</svg>
