<svg width="15" height="14" viewBox="0 0 15 14" fill="none" xmlns="http://www.w3.org/2000/svg">
  <path d="M11.7711 0.974713C11.4932 0.783164 11.1127 0.853148 10.9211 1.13103C10.7296 1.40891 10.7995 1.78946 11.0774 1.98101C12.7098 3.10624 13.7777 4.98702 13.7777 7.11708C13.7777 9.22783 12.7291 11.0938 11.1217 12.2224C10.8455 12.4163 10.7788 12.7974 10.9727 13.0736C11.1666 13.3499 11.5478 13.4166 11.824 13.2226C13.7433 11.875 14.9999 9.64282 14.9999 7.11708C14.9999 4.56818 13.7202 2.3183 11.7711 0.974713Z" fill="#666666"></path>
  <path d="M10.2968 3.20132C10.0048 3.03215 9.63088 3.13176 9.46171 3.4238C9.29254 3.71585 9.39215 4.08973 9.68419 4.2589C10.6712 4.83065 11.3329 5.8968 11.3329 7.11678C11.3329 8.33734 10.6706 9.40392 9.6828 9.97547C9.39067 10.1445 9.29088 10.5183 9.4599 10.8105C9.62893 11.1026 10.0028 11.2024 10.2949 11.0334C11.6448 10.2523 12.5551 8.79122 12.5551 7.11678C12.5551 5.44313 11.6456 3.98263 10.2968 3.20132Z" fill="#666666"></path>
  <path fillrule="evenodd" cliprule="evenodd" d="M0.699951 4.31938C0.699951 3.98187 0.973552 3.70827 1.31105 3.70827H3.25728C3.38267 3.70827 3.50501 3.66971 3.60773 3.5978L7.07165 1.17306C7.47667 0.889544 8.0332 1.1793 8.0332 1.6737V12.1594C8.0332 12.6538 7.47667 12.9436 7.07165 12.6601L3.60773 10.2353C3.50501 10.1634 3.38267 10.1249 3.25728 10.1249H1.31105C0.973552 10.1249 0.699951 9.85126 0.699951 9.51376V4.31938Z" fill="#666666"></path>
</svg>