<svg xmlns="http://www.w3.org/2000/svg" width="87" height="76" viewBox="0 0 87 76">
  <g fill="none" fill-rule="evenodd" transform="translate(0 1)">
    <ellipse cx="43.5" cy="60.5" fill="#EEE" rx="43.5" ry="14.5"/>
    <g fill="#FFF" stroke="#BFBFBF" stroke-width="1.5" transform="translate(4.558 14.5)">
      <path d="M13.4678391,1.31450406e-13 C13.4678391,1.31450406e-13 4.55733908,9.764 0.0408390781,9.2765 C0.0408390781,9.2765 -0.813160922,14.8905 5.28933908,16.355 C11.3928391,17.8195 15.6643391,2.1975 13.4678391,1.31450406e-13"/>
      <path d="M78.9678391,1.31450406e-13 C78.9678391,1.31450406e-13 70.0573391,9.764 65.5408391,9.2765 C65.5408391,9.2765 64.6868391,14.8905 70.7893391,16.355 C76.8928391,17.8195 81.1643391,2.1975 78.9678391,1.31450406e-13" transform="matrix(-1 0 0 1 145.052 0)"/>
    </g>
    <g transform="translate(9.558)">
      <g transform="matrix(-1 0 0 1 29 .16)">
        <path fill="#FFF" stroke="#BFBFBF" stroke-width="1.5" d="M27.8825,0.242932836 C27.8825,0.242932836 19.77,10.6664328 1.81188398e-13,5.05743284 L14.7895,16.1014328 C14.7895,16.1014328 29.4965,14.2534328 28.977,1.12493284 C28.977,1.12493284 28.9085,-0.628567164 27.8825,0.242932836 Z"/>
        <path fill="#BFBFBF" d="M21.06465 4.87233284C22.84565 5.82533284 23.71465 6.74583284 24.29815 8.53133284 24.29815 8.53133284 23.20765 5.90983284 19.78365 5.34933284 20.23065 5.19783284 20.65765 5.03883284 21.06465 4.87233284M15.3305 6.40943284C17.04 7.09993284 19.1475 9.89243284 18.8615 12.3924328 18.8615 12.3924328 17.8475 7.71393284 13.257 6.63543284 13.977 6.58293284 14.668 6.50743284 15.3305 6.40943284M25.3371 2.53298284C25.7271 2.73098284 26.3771 3.21398284 26.6111 3.64748284 26.6111 3.64748284 26.1136 2.97898284 24.9006 2.83648284 25.0526 2.73398284 25.1976 2.63298284 25.3371 2.53298284"/>
      </g>
      <g transform="translate(40 .16)">
        <path fill="#FFF" stroke="#BFBFBF" stroke-width="1.5" d="M27.8825,0.242932836 C27.8825,0.242932836 19.77,10.6664328 1.81188398e-13,5.05743284 L14.7895,16.1014328 C14.7895,16.1014328 29.4965,14.2534328 28.977,1.12493284 C28.977,1.12493284 28.9085,-0.628567164 27.8825,0.242932836 Z"/>
        <path fill="#BFBFBF" d="M21.06465 4.87233284C22.84565 5.82533284 23.71465 6.74583284 24.29815 8.53133284 24.29815 8.53133284 23.20765 5.90983284 19.78365 5.34933284 20.23065 5.19783284 20.65765 5.03883284 21.06465 4.87233284M15.3305 6.40943284C17.04 7.09993284 19.1475 9.89243284 18.8615 12.3924328 18.8615 12.3924328 17.8475 7.71393284 13.257 6.63543284 13.977 6.58293284 14.668 6.50743284 15.3305 6.40943284M25.3371 2.53298284C25.7271 2.73098284 26.3771 3.21398284 26.6111 3.64748284 26.6111 3.64748284 26.1136 2.97898284 24.9006 2.83648284 25.0526 2.73398284 25.1976 2.63298284 25.3371 2.53298284"/>
      </g>
      <path fill="#FEFEFE" d="M50.9185,59.02665 C50.9185,69.48915 43.38,59.02665 34.0815,59.02665 C24.7825,59.02665 17.244,69.48915 17.244,59.02665 C17.244,48.56365 24.7825,40.08215 34.0815,40.08215 C43.38,40.08215 50.9185,48.56365 50.9185,59.02665"/>
      <path fill="#FFF" stroke="#BFBFBF" stroke-width="1.5" d="M52,58.9445 C52,69.407 44.1647686,58.9445 34.5002598,58.9445 C24.8352314,58.9445 17,69.407 17,58.9445 C17,48.4815 24.8352314,40 34.5002598,40 C44.1647686,40 52,48.4815 52,58.9445 Z"/>
      <path fill="#FFF" stroke="#BFBFBF" stroke-width="1.5" d="M64.3261293,25.165 C67.3401293,37.599 51.9956293,44.7895 34.0551293,44.7895 C16.1141293,44.7895 2.03012935,37.769 4.22612935,25.165 C6.48462935,12.201 16.1141293,3.5 34.0551293,3.5 C51.9956293,3.5 60.9261293,11.138 64.3261293,25.165"/>
      <path stroke="#BFBFBF" stroke-linecap="round" stroke-linejoin="round" stroke-width="1.5" d="M22.80275 45.00125C22.80275 45.00125 25.92625 52.88925 29.45975 52.8957539 32.16925 52.90075 29.20575 48.10425 28.12775 46.63675M45.35965 45.00125C45.35965 45.00125 42.23615 52.88925 38.70265 52.8957539 35.99315 52.90075 38.95665 48.10425 40.03515 46.63675"/>
    </g>
    <path stroke="#BFBFBF" stroke-linecap="round" stroke-linejoin="round" stroke-width="1.5" d="M59.7249797,38.3335 C59.7249797,38.3335 57.8084797,31 43.6414797,31 C29.4749797,31 28.0584797,39.0835 28.0584797,39.0835"/>
    <g transform="translate(23.558 13.5)">
      <path fill="#BFBFBF" d="M11.5912 5.75C11.5912 8.9255 9.5347 11.5 6.9982 11.5 4.4617 11.5 2.4057 8.9255 2.4057 5.75 2.4057 2.574 4.4617 0 6.9982 0 9.5347 0 11.5912 2.574 11.5912 5.75M37.72555 5.75C37.72555 8.9255 35.66955 11.5 33.13255 11.5 30.59655 11.5 28.54005 8.9255 28.54005 5.75 28.54005 2.574 30.59655 0 33.13255 0 35.66955 0 37.72555 2.574 37.72555 5.75"/>
      <path stroke="#BFBFBF" stroke-linecap="round" stroke-linejoin="round" stroke-width="1.417" d="M31.70335 13.41655C31.70335 13.41655 34.03685 9.08355 39.95335 9.58355M8.42785 13.41655C8.42785 13.41655 6.09435 9.08355.17785 9.58355"/>
    </g>
  </g>
</svg>
