<svg xmlns="http://www.w3.org/2000/svg" width="174" height="152" viewBox="0 0 174 152">
  <g fill="none" fill-rule="evenodd" transform="translate(0 2)">
    <ellipse cx="87" cy="121" fill="#EEE" rx="87" ry="29"/>
    <g fill="#FFF" stroke="#BFBFBF" stroke-width="3" transform="translate(9.117 29)">
      <path d="M26.9356782,2.62900812e-13 C26.9356782,2.62900812e-13 9.11467816,19.528 0.0816781562,18.553 C0.0816781562,18.553 -1.62632184,29.781 10.5786782,32.71 C22.7856782,35.639 31.3286782,4.395 26.9356782,2.62900812e-13"/>
      <path d="M157.935678,2.62900812e-13 C157.935678,2.62900812e-13 140.114678,19.528 131.081678,18.553 C131.081678,18.553 129.373678,29.781 141.578678,32.71 C153.785678,35.639 162.328678,4.395 157.935678,2.62900812e-13" transform="matrix(-1 0 0 1 290.105 0)"/>
    </g>
    <g transform="translate(19)">
      <g transform="matrix(-1 0 0 1 58 .321)">
        <path fill="#FFF" stroke="#BFBFBF" stroke-width="3" d="M55.765,0.485865673 C55.765,0.485865673 39.54,21.3328657 3.62376795e-13,10.1148657 L29.579,32.2028657 C29.579,32.2028657 58.993,28.5068657 57.954,2.24986567 C57.954,2.24986567 57.817,-1.25713433 55.765,0.485865673 Z"/>
        <path fill="#BFBFBF" d="M42.1293 9.74466567C45.6913 11.6506657 47.4293 13.4916657 48.5963 17.0626657 48.5963 17.0626657 46.4153 11.8196657 39.5673 10.6986657 40.4613 10.3956657 41.3153 10.0776657 42.1293 9.74466567M30.661 12.8188657C34.08 14.1998657 38.295 19.7848657 37.723 24.7848657 37.723 24.7848657 35.695 15.4278657 26.514 13.2708657 27.954 13.1658657 29.336 13.0148657 30.661 12.8188657M50.6742 5.06596567C51.4542 5.46196567 52.7542 6.42796567 53.2222 7.29496567 53.2222 7.29496567 52.2272 5.95796567 49.8012 5.67296567 50.1052 5.46796567 50.3952 5.26596567 50.6742 5.06596567"/>
      </g>
      <g transform="translate(80 .321)">
        <path fill="#FFF" stroke="#BFBFBF" stroke-width="3" d="M55.765,0.485865673 C55.765,0.485865673 39.54,21.3328657 3.62376795e-13,10.1148657 L29.579,32.2028657 C29.579,32.2028657 58.993,28.5068657 57.954,2.24986567 C57.954,2.24986567 57.817,-1.25713433 55.765,0.485865673 Z"/>
        <path fill="#BFBFBF" d="M42.1293 9.74466567C45.6913 11.6506657 47.4293 13.4916657 48.5963 17.0626657 48.5963 17.0626657 46.4153 11.8196657 39.5673 10.6986657 40.4613 10.3956657 41.3153 10.0776657 42.1293 9.74466567M30.661 12.8188657C34.08 14.1998657 38.295 19.7848657 37.723 24.7848657 37.723 24.7848657 35.695 15.4278657 26.514 13.2708657 27.954 13.1658657 29.336 13.0148657 30.661 12.8188657M50.6742 5.06596567C51.4542 5.46196567 52.7542 6.42796567 53.2222 7.29496567 53.2222 7.29496567 52.2272 5.95796567 49.8012 5.67296567 50.1052 5.46796567 50.3952 5.26596567 50.6742 5.06596567"/>
      </g>
      <path fill="#FEFEFE" d="M101.837,118.0533 C101.837,138.9783 86.76,118.0533 68.163,118.0533 C49.565,118.0533 34.488,138.9783 34.488,118.0533 C34.488,97.1273 49.565,80.1643 68.163,80.1643 C86.76,80.1643 101.837,97.1273 101.837,118.0533"/>
      <path fill="#FFF" stroke="#BFBFBF" stroke-width="3" d="M104,117.889 C104,138.814 88.3295372,117.889 69.0005197,117.889 C49.6704628,117.889 34,138.814 34,117.889 C34,96.963 49.6704628,80 69.0005197,80 C88.3295372,80 104,96.963 104,117.889 Z"/>
      <path fill="#FFF" stroke="#BFBFBF" stroke-width="3" d="M128.652259,50.33 C134.680259,75.198 103.991259,89.579 68.1102587,89.579 C32.2282587,89.579 4.06025869,75.538 8.45225869,50.33 C12.9692587,24.402 32.2282587,7 68.1102587,7 C103.991259,7 121.852259,22.276 128.652259,50.33"/>
      <path stroke="#BFBFBF" stroke-linecap="round" stroke-linejoin="round" stroke-width="3" d="M100.333,76.667 C100.333,76.667 96.5,62 68.166,62 C39.833,62 37,78.167 37,78.167" transform="matrix(1 0 0 -1 0 140.167)"/>
      <path stroke="#BFBFBF" stroke-linecap="round" stroke-linejoin="round" stroke-width="3" d="M45.6055 90.0025C45.6055 90.0025 51.8525 105.7785 58.9195 105.791508 64.3385 105.8015 58.4115 96.2085 56.2555 93.2735M90.7193 90.0025C90.7193 90.0025 84.4723 105.7785 77.4053 105.791508 71.9863 105.8015 77.9133 96.2085 80.0703 93.2735"/>
    </g>
    <g fill="#BFBFBF" transform="translate(49 30)">
      <path d="M19.1824,12.5 C19.1824,18.851 15.0694,24 9.9964,24 C4.9234,24 0.8114,18.851 0.8114,12.5 C0.8114,6.148 4.9234,1 9.9964,1 C15.0694,1 19.1824,6.148 19.1824,12.5"/>
      <path d="M18.4063955,11.5114959 C18.4063955,17.8624959 14.2933955,23.0114959 9.22039546,23.0114959 C4.14739546,23.0114959 0.0353954619,17.8624959 0.0353954619,11.5114959 C0.0353954619,5.15949587 4.14739546,0.0114958683 9.22039546,0.0114958683 C14.2933955,0.0114958683 18.4063955,5.15949587 18.4063955,11.5114959" transform="matrix(-1 0 0 1 74.776 .989)"/>
    </g>
  </g>
</svg>
