<svg width="16" height="16" viewBox="0 0 16 16" fill="none"
  xmlns="http://www.w3.org/2000/svg">
  <path fill-rule="evenodd" clip-rule="evenodd" d="M1.65829 5.36743L3.31657 7.74953H2.02743C2.02562 7.78113 2.02348 7.81276 2.02135 7.84444L2.02134 7.84446C2.01583 7.92619 2.01029 8.00823 2.01029 8.09086C2.01029 11.473 4.70971 14.2154 8.03886 14.2154C8.44876 14.2154 8.84952 14.1735 9.23581 14.0939L9.55467 14.0128C10.5908 13.7401 11.5352 13.1953 12.2899 12.4349L13 13.156C11.7276 14.4417 9.97524 15.2379 8.03886 15.2379C4.1539 15.2379 1.00495 12.0394 1.00495 8.09239C1.00495 8.00738 1.00914 7.92322 1.01332 7.83912L1.01332 7.83911C1.01478 7.80976 1.01624 7.78042 1.01752 7.75105H0L1.65829 5.36781V5.36743ZM7.96114 0.761719C11.8461 0.761719 14.995 3.96134 14.995 7.90953C14.995 7.99318 14.9909 8.07684 14.9867 8.16065C14.9852 8.19019 14.9838 8.21975 14.9825 8.24934H16L14.3417 10.6318L12.6834 8.24934H13.9726C13.9744 8.21703 13.9766 8.18491 13.9788 8.15284C13.9843 8.0722 13.9897 7.99184 13.9897 7.90953C13.9897 4.52629 11.2903 1.78305 7.96114 1.78305C6.30248 1.78305 4.79962 2.46458 3.70971 3.56591L3 2.844C4.27238 1.55791 6.02476 0.761719 7.96114 0.761719ZM8 4.0625C10.1746 4.0625 11.9375 5.82538 11.9375 8C11.9375 10.1746 10.1746 11.9375 8 11.9375C5.82538 11.9375 4.0625 10.1746 4.0625 8C4.0625 5.82538 5.82538 4.0625 8 4.0625ZM10.1005 7.28021L9.50389 6.68359L7.74801 8.43915L6.72235 7.41337L6.12573 8.00999L7.74823 9.63249L10.1005 7.28021Z" fill="#4BC310"/>
</svg>
