<svg width="160" height="60" viewBox="0 0 160 60" fill="none" xmlns="http://www.w3.org/2000/svg">
<g clip-path="url(#clip0_638_12563)">
<line x1="159.5" y1="2.18557e-08" x2="159.5" y2="60" stroke="#FF4C89"/>
<line x1="0.5" y1="-7.60754e-06" x2="0.499997" y2="60" stroke="#FF4C89"/>
<line x1="160" y1="0.5" x2="-2.18557e-08" y2="0.499993" stroke="#666666" stroke-dasharray="2 2"/>
<line x1="160" y1="59.5" x2="-2.18557e-08" y2="59.5" stroke="#666666" stroke-dasharray="2 2"/>
<line x1="160" y1="1" x2="150" y2="1" stroke="#FF4C89" stroke-width="2"/>
<line x1="159" y1="4.37114e-08" x2="159" y2="10" stroke="#FF4C89" stroke-width="2"/>
<line x1="159" y1="60" x2="159" y2="50" stroke="#FF4C89" stroke-width="2"/>
<line x1="160" y1="59" x2="150" y2="59" stroke="#FF4C89" stroke-width="2"/>
<line x1="1" y1="-7.58568e-06" x2="1" y2="9.99999" stroke="#FF4C89" stroke-width="2"/>
<line x1="4.37114e-08" y1="0.999992" x2="10" y2="0.999993" stroke="#FF4C89" stroke-width="2"/>
<line x1="4.37114e-08" y1="59" x2="10" y2="59" stroke="#FF4C89" stroke-width="2"/>
<line x1="1" y1="60" x2="1" y2="50" stroke="#FF4C89" stroke-width="2"/>
</g>
<defs>
<clipPath id="clip0_638_12563">
<rect width="60" height="160" fill="white" transform="translate(160) rotate(90)"/>
</clipPath>
</defs>
</svg>
