<svg width="48" height="48" viewBox="0 0 48 48" fill="none" xmlns="http://www.w3.org/2000/svg">
<path d="M42.9969 5.01525C38.4684 0.504188 31.957 0 24 0C16.0329 0 9.51169 0.51 4.98506 5.03325C0.459094 9.55463 0 16.0654 0 24.0233C0 31.9826 0.459094 38.4953 4.98694 43.0183C9.51328 47.5422 16.0338 48.0001 24 48.0001C31.9663 48.0001 38.4857 47.5422 43.012 43.0183C47.5396 38.4945 48 31.9826 48 24.0233C48 16.0552 47.5346 9.53738 42.9969 5.01525Z" fill="#4686F3" fill-opacity="0.1"/>
<path d="M20 33C20 32.4477 20.4477 32 21 32H27C27.5523 32 28 32.4477 28 33C28 33.5523 27.5523 34 27 34H21C20.4477 34 20 33.5523 20 33Z" fill="#4686F3"/>
<path fill-rule="evenodd" clip-rule="evenodd" d="M22.9992 16.3078C21.4419 15.4246 19.5 16.5389 19.5 18.3411V24.4389C19.5 26.2192 21.4345 27.3595 22.9992 26.4721L28.3251 23.4211L28.3311 23.4176C29.8896 22.5104 29.8896 20.2695 28.3311 19.3623L28.3251 19.3589L23.0029 16.31L22.9992 16.3078ZM21.5 18.3411C21.5 18.0844 21.7769 17.9151 22.0112 18.0468L27.327 21.092C27.5577 21.2282 27.5577 21.5518 27.327 21.6879L22.0113 24.7331C21.7843 24.8607 21.5 24.6907 21.5 24.4389V18.3411Z" fill="#4686F3"/>
<path fill-rule="evenodd" clip-rule="evenodd" d="M12 13C12 11.3431 13.3431 10 15 10H33C34.6569 10 36 11.3431 36 13V35C36 36.6569 34.6569 38 33 38H15C13.3431 38 12 36.6569 12 35V13ZM15 12C14.4477 12 14 12.4477 14 13V35C14 35.5523 14.4477 36 15 36H33C33.5523 36 34 35.5523 34 35V13C34 12.4477 33.5523 12 33 12H15Z" fill="#4686F3"/>
</svg>
