<svg width="48" height="48" viewBox="0 0 48 48" fill="none" xmlns="http://www.w3.org/2000/svg">
<g clip-path="url(#clip0_3094_13774)">
<path d="M42.9969 5.01525C38.4684 0.504188 31.957 0 24 0C16.0329 0 9.51169 0.51 4.98506 5.03325C0.459094 9.55463 0 16.0654 0 24.0233C0 31.9826 0.459094 38.4953 4.98694 43.0183C9.51328 47.5422 16.0338 48.0001 24 48.0001C31.9663 48.0001 38.4857 47.5422 43.012 43.0183C47.5396 38.4945 48 31.9826 48 24.0233C48 16.0552 47.5346 9.53738 42.9969 5.01525Z" fill="#4686F3" fill-opacity="0.1"/>
<path d="M22.9958 26C22.9958 25.1716 22.3242 24.5 21.4958 24.5H16.5C15.6716 24.5 15 25.1716 15 26V26.7746C15 28.5969 16.4455 29.5008 19.0602 29.5008C21.6833 29.5008 23.0979 28.5849 22.995 26.7484L22.9958 26Z" fill="#4686F3"/>
<path d="M26.9964 26C26.9964 25.1716 26.3248 24.5 25.4964 24.5L23.3177 24.4996C23.7332 24.8661 23.9953 25.4024 23.9953 26L23.9937 26.7204L24 26.9366C24.001 27.7865 23.7139 28.459 23.1772 28.9547C23.4494 28.9849 23.741 29 24.0511 29C26.3357 29 27 28 26.9956 26.5266L26.9964 26Z" fill="#4686F3"/>
<path d="M21.5004 21.0004C21.5004 19.6195 20.3809 18.5 19 18.5C17.6191 18.5 16.4996 19.6195 16.4996 21.0004C16.4996 22.3813 17.6191 23.5008 19 23.5008C20.3809 23.5008 21.5004 22.3813 21.5004 21.0004Z" fill="#4686F3"/>
<path d="M26 21.5C26 20.3954 25.1046 19.5 24 19.5C22.8954 19.5 22 20.3954 22 21.5C22 22.6046 22.8954 23.5 24 23.5C25.1046 23.5 26 22.6046 26 21.5Z" fill="#4686F3"/>
<path fill-rule="evenodd" clip-rule="evenodd" d="M9 18C9 16.3431 10.3431 15 12 15H30C31.6569 15 33 16.3431 33 18V18.369L34.747 17.3739L34.7508 17.3718C36.6353 16.3092 39 17.6444 39 19.8333V28.1691C39 30.3313 36.6427 31.6974 34.7508 30.6306L33 29.6334V30C33 31.6569 31.6569 33 30 33H12C10.3431 33 9 31.6569 9 30V18ZM33 27.3318V20.6706L35.7346 19.1131C36.3136 18.788 37 19.2075 37 19.8333V28.1691C37 28.785 36.3063 29.2101 35.7347 28.8893L35.7331 28.8884L33 27.3318ZM12 17C11.4477 17 11 17.4477 11 18V30C11 30.5523 11.4477 31 12 31H30C30.5523 31 31 30.5523 31 30V18C31 17.4477 30.5523 17 30 17H12Z" fill="#4686F3"/>
</g>
<defs>
<clipPath id="clip0_3094_13774">
<rect width="48" height="48" rx="16" fill="white"/>
</clipPath>
</defs>
</svg>
