<svg width="48" height="48" viewBox="0 0 48 48" fill="none" xmlns="http://www.w3.org/2000/svg">
<path d="M42.9969 5.01525C38.4684 0.504188 31.957 0 24 0C16.0329 0 9.51169 0.51 4.98506 5.03325C0.459094 9.55463 0 16.0654 0 24.0233C0 31.9826 0.459094 38.4953 4.98694 43.0183C9.51328 47.5422 16.0338 48.0001 24 48.0001C31.9663 48.0001 38.4857 47.5422 43.012 43.0183C47.5396 38.4945 48 31.9826 48 24.0233C48 16.0552 47.5346 9.53738 42.9969 5.01525Z" fill="#4686F3" fill-opacity="0.1"/>
<path d="M15.6499 18.7822C15.6499 18.2058 16.1171 17.7386 16.6934 17.7386H22.9546C23.531 17.7386 23.9982 18.2058 23.9982 18.7822C23.9982 19.3585 23.531 19.8257 22.9546 19.8257H16.6934C16.1171 19.8257 15.6499 19.3585 15.6499 18.7822Z" fill="#4686F3"/>
<path d="M16.6934 21.9129C16.1171 21.9129 15.6499 22.3801 15.6499 22.9565C15.6499 23.5328 16.1171 24 16.6934 24H20.8676C21.4439 24 21.9111 23.5328 21.9111 22.9565C21.9111 22.3801 21.4439 21.9129 20.8676 21.9129H16.6934Z" fill="#4686F3"/>
<path fill-rule="evenodd" clip-rule="evenodd" d="M20.6055 11.4775C14.8422 11.4775 10.1701 16.1496 10.1701 21.9129C10.1701 23.4891 10.5203 24.9862 11.1478 26.3282C10.7944 27.7168 10.3995 29.2652 10.1401 30.2816C9.81589 31.5523 10.9602 32.7083 12.2324 32.4025C13.2762 32.1516 14.8805 31.7665 16.3101 31.4257C17.6213 32.0186 19.0761 32.3482 20.6055 32.3482C26.3688 32.3482 31.0408 27.6761 31.0408 21.9129C31.0408 16.1496 26.3688 11.4775 20.6055 11.4775ZM12.2572 21.9129C12.2572 17.3023 15.9949 13.5646 20.6055 13.5646C25.2161 13.5646 28.9537 17.3023 28.9537 21.9129C28.9537 26.5235 25.2161 30.2611 20.6055 30.2611C19.2687 30.2611 18.0082 29.9477 16.8906 29.3913L16.5519 29.2227L16.1838 29.3103C14.9 29.616 13.4167 29.9716 12.305 30.2386C12.5815 29.1545 12.9477 27.7183 13.2652 26.4706L13.3628 26.0867L13.1812 25.7348C12.591 24.5908 12.2572 23.2923 12.2572 21.9129Z" fill="#4686F3"/>
<path d="M27.5624 36.5224C24.8222 36.5224 22.3288 35.4663 20.4668 33.7389C20.513 33.7394 20.5593 33.7397 20.6056 33.7397C21.6045 33.7397 22.5745 33.6158 23.5011 33.3826C24.7032 34.0532 26.0882 34.4353 27.5624 34.4353C28.8991 34.4353 30.1597 34.1219 31.2773 33.5655L31.616 33.3969L31.9841 33.4846C33.2663 33.7898 34.7182 34.1049 35.7953 34.3327C35.5518 33.2884 35.2197 31.8906 34.9027 30.6448L34.805 30.2609L34.9866 29.909C35.5769 28.765 35.9107 27.4665 35.9107 26.0871C35.9107 23.1447 34.3885 20.5579 32.0886 19.0711C31.8404 18.0648 31.4634 17.1092 30.976 16.2229C35.0629 17.6369 37.9977 21.5193 37.9977 26.0871C37.9977 27.6637 37.6474 29.1611 37.0196 30.5033C37.3717 31.9058 37.7282 33.4251 37.9543 34.4037C38.2388 35.6351 37.1543 36.7496 35.9126 36.49C34.9008 36.2786 33.3112 35.9393 31.8589 35.5994C30.5475 36.1926 29.0922 36.5224 27.5624 36.5224Z" fill="#4686F3"/>
</svg>
