<svg width="48" height="48" viewBox="0 0 48 48" fill="none" xmlns="http://www.w3.org/2000/svg">
<path d="M42.9969 5.01525C38.4684 0.504188 31.957 0 24 0C16.0329 0 9.51169 0.51 4.98506 5.03325C0.459094 9.55463 0 16.0654 0 24.0233C0 31.9826 0.459094 38.4953 4.98694 43.0183C9.51328 47.5422 16.0338 48.0001 24 48.0001C31.9663 48.0001 38.4857 47.5422 43.012 43.0183C47.5396 38.4945 48 31.9826 48 24.0233C48 16.0552 47.5346 9.53738 42.9969 5.01525Z" fill="#4686F3" fill-opacity="0.1"/>
<path d="M16 11C16 10.4477 16.4477 10 17 10H35C36.6569 10 38 11.3431 38 13V31C38 31.5523 37.5523 32 37 32C36.4477 32 36 31.5523 36 31V13C36 12.4477 35.5523 12 35 12H17C16.4477 12 16 11.5523 16 11Z" fill="#4686F3"/>
<path fill-rule="evenodd" clip-rule="evenodd" d="M21.2485 21.2856C19.8032 20.4659 18 21.5 18 23.1734V28.509C18 30.1623 19.7958 31.2207 21.2485 30.3968L25.9091 27.7269L25.9151 27.7234C27.3616 26.8814 27.3616 24.801 25.9151 23.959L25.9091 23.9555L21.2522 21.2878L21.2485 21.2856ZM20 23.1734C20 23.0453 20.1383 22.9563 20.2607 23.0247L24.9107 25.6885C25.0298 25.7594 25.0298 25.923 24.9107 25.9939L20.2606 28.6578C20.2263 28.677 20.1988 28.6815 20.1756 28.6809C20.1489 28.6802 20.1179 28.6722 20.0877 28.6546C20.027 28.6191 20 28.5679 20 28.509V23.1734Z" fill="#4686F3"/>
<path fill-rule="evenodd" clip-rule="evenodd" d="M10 17C10 15.3431 11.3431 14 13 14H31C32.6569 14 34 15.3431 34 17V35C34 36.6569 32.6569 38 31 38H13C11.3431 38 10 36.6569 10 35V17ZM13 16C12.4477 16 12 16.4477 12 17V35C12 35.5523 12.4477 36 13 36H31C31.5523 36 32 35.5523 32 35V17C32 16.4477 31.5523 16 31 16H13Z" fill="#4686F3"/>
</svg>
