<svg width="48" height="48" viewBox="0 0 48 48" fill="none" xmlns="http://www.w3.org/2000/svg">
<g clip-path="url(#clip0_3094_13768)">
<path d="M42.9969 5.01525C38.4684 0.504188 31.957 0 24 0C16.0329 0 9.51169 0.51 4.98506 5.03325C0.459094 9.55463 0 16.0654 0 24.0233C0 31.9826 0.459094 38.4953 4.98694 43.0183C9.51328 47.5422 16.0338 48.0001 24 48.0001C31.9663 48.0001 38.4857 47.5422 43.012 43.0183C47.5396 38.4945 48 31.9826 48 24.0233C48 16.0552 47.5346 9.53738 42.9969 5.01525Z" fill="#4686F3" fill-opacity="0.1"/>
<path fill-rule="evenodd" clip-rule="evenodd" d="M10 16C10 14.3431 11.3431 13 13 13H35C36.6569 13 38 14.3431 38 16V22C38 22.5523 37.5523 23 37 23C36.4477 23 36 22.5523 36 22V16C36 15.4477 35.5523 15 35 15H13C12.4477 15 12 15.4477 12 16V27.0272L17.9274 21.757C18.4993 21.2493 19.2441 20.9787 20.0086 21.0013C20.7727 21.024 21.4994 21.3375 22.0402 21.8779L27.5313 27.3587L28.9899 25.8505L29.0009 25.8392C29.5297 25.3094 30.2376 24.9963 30.9854 24.9616C31.7331 24.927 32.4669 25.1731 33.0425 25.6517L33.7988 26.2825L32.3788 27.7025L31.7638 27.1895C31.572 27.0302 31.3271 26.9479 31.078 26.9595C30.831 26.971 30.597 27.0736 30.4212 27.2474L24.8582 33H25.5C26.0523 33 26.5 33.4477 26.5 34C26.5 34.5523 26.0523 35 25.5 35H13C11.3431 35 10 33.6569 10 32V16ZM12 32V29.7034L19.2558 23.2522C19.4464 23.083 19.6946 22.9929 19.9493 23.0004C20.2041 23.008 20.4464 23.1126 20.6267 23.2928L26.1408 28.7966L22.0759 33H13C12.4477 33 12 32.5523 12 32Z" fill="#4686F3"/>
<path fill-rule="evenodd" clip-rule="evenodd" d="M29.25 16C27.4551 16 26 17.4551 26 19.25C26 21.0449 27.4551 22.5 29.25 22.5C31.0449 22.5 32.5 21.0449 32.5 19.25C32.5 17.4551 31.0449 16 29.25 16ZM28 19.25C28 18.5596 28.5596 18 29.25 18C29.9404 18 30.5 18.5596 30.5 19.25C30.5 19.9404 29.9404 20.5 29.25 20.5C28.5596 20.5 28 19.9404 28 19.25Z" fill="#4686F3"/>
<path d="M30.4176 36.4965C30.6114 36.4579 30.7894 36.3627 30.9291 36.223L39.2005 27.9516C39.591 27.5611 39.591 26.9279 39.2005 26.5374L37.7863 25.1232C37.3957 24.7327 36.7626 24.7327 36.372 25.1232L28.1007 33.3945C27.961 33.5343 27.8658 33.7122 27.8271 33.906L27.3283 36.4073C27.2585 36.7569 27.5667 37.0651 27.9164 36.9954L30.4176 36.4965Z" fill="#4686F3"/>
</g>
<defs>
<clipPath id="clip0_3094_13768">
<rect width="48" height="48" rx="16" fill="white"/>
</clipPath>
</defs>
</svg>
