<svg width="48" height="48" viewBox="0 0 48 48" fill="none" xmlns="http://www.w3.org/2000/svg">
<g clip-path="url(#clip0_3094_13779)">
<path d="M42.9969 5.01525C38.4684 0.504188 31.957 0 24 0C16.0329 0 9.51169 0.51 4.98506 5.03325C0.459094 9.55463 0 16.0654 0 24.0233C0 31.9826 0.459094 38.4953 4.98694 43.0183C9.51328 47.5422 16.0338 48.0001 24 48.0001C31.9663 48.0001 38.4857 47.5422 43.012 43.0183C47.5396 38.4945 48 31.9826 48 24.0233C48 16.0552 47.5346 9.53738 42.9969 5.01525Z" fill="#4686F3" fill-opacity="0.1"/>
<path d="M21.75 18.2498C21.75 18.8465 21.9871 19.4188 22.409 19.8407C22.831 20.2627 23.4033 20.4998 24 20.4998C24.5967 20.4998 25.169 20.2627 25.591 19.8407C26.0129 19.4188 26.25 18.8465 26.25 18.2498C26.25 17.653 26.0129 17.0807 25.591 16.6588C25.169 16.2368 24.5967 15.9998 24 15.9998C23.4033 15.9998 22.831 16.2368 22.409 16.6588C21.9871 17.0807 21.75 17.653 21.75 18.2498Z" fill="#4686F3"/>
<path d="M30.114 20.42L27.2937 23.2403C27.1062 23.4278 26.9999 23.6825 26.9999 23.9481V31.7497C26.9999 31.8872 26.8874 31.9997 26.7499 31.9997H24.7499C24.6124 31.9997 24.4999 31.8872 24.4999 31.7497V27.4997H23.4999V31.7497C23.4999 31.8872 23.3874 31.9997 23.2499 31.9997H21.2499C21.1124 31.9997 20.9999 31.8872 20.9999 31.7497V23.9465C20.9999 23.6809 20.8953 23.4262 20.7062 23.2387L17.8859 20.42C17.3999 19.934 17.3843 19.1418 17.864 18.6512C18.1093 18.4012 18.4343 18.2747 18.7578 18.2747C19.0781 18.2747 19.3984 18.3965 19.6421 18.6403L21.8546 20.8528C21.9484 20.9465 22.0749 20.9997 22.2078 20.9997H25.789C25.9218 20.9997 26.0484 20.9465 26.1421 20.8528L28.3578 18.6403C28.6015 18.3965 28.9218 18.2747 29.2421 18.2747C29.5671 18.2747 29.8906 18.3997 30.1359 18.6512C30.6156 19.1418 30.5999 19.934 30.114 20.42Z" fill="#4686F3"/>
<path fill-rule="evenodd" clip-rule="evenodd" d="M24.9265 9.24944C24.3243 9.0539 23.6757 9.0539 23.0735 9.24944L13.0735 12.4966C11.8371 12.898 11 14.05 11 15.3499V26.4138C11 33.3977 16.8537 39 24 39C31.1463 39 37 33.3977 37 26.4138V15.3499C37 14.05 36.1629 12.898 34.9265 12.4966L24.9265 9.24944ZM23.6912 11.1517C23.8919 11.0865 24.1081 11.0865 24.3088 11.1517L34.3088 14.3988C34.721 14.5326 35 14.9166 35 15.3499V26.4138C35 32.2276 30.1085 37 24 37C17.8915 37 13 32.2276 13 26.4138V15.3499C13 14.9166 13.279 14.5326 13.6912 14.3988L23.6912 11.1517Z" fill="#4686F3"/>
</g>
<defs>
<clipPath id="clip0_3094_13779">
<rect width="48" height="48" rx="16" fill="white"/>
</clipPath>
</defs>
</svg>
