<svg width="48" height="48" viewBox="0 0 48 48" fill="none" xmlns="http://www.w3.org/2000/svg">
<path d="M42.9969 5.01525C38.4684 0.504188 31.957 0 24 0C16.0329 0 9.51169 0.51 4.98506 5.03325C0.459094 9.55463 0 16.0654 0 24.0233C0 31.9826 0.459094 38.4953 4.98694 43.0183C9.51328 47.5422 16.0338 48.0001 24 48.0001C31.9663 48.0001 38.4857 47.5422 43.012 43.0183C47.5396 38.4945 48 31.9826 48 24.0233C48 16.0552 47.5346 9.53738 42.9969 5.01525Z" fill="#4686F3" fill-opacity="0.1"/>
<path fill-rule="evenodd" clip-rule="evenodd" d="M22.9985 19.5854C21.5532 18.7657 19.75 19.7998 19.75 21.4732V26.8088C19.75 28.4621 21.5458 29.5205 22.9985 28.6966L27.6591 26.0267L27.6651 26.0232C29.1116 25.1812 29.1116 23.1008 27.6651 22.2588L27.6591 22.2554L23.0022 19.5876L22.9985 19.5854ZM21.75 21.4732C21.75 21.3451 21.8883 21.2561 22.0107 21.3245L26.6607 23.9883C26.7798 24.0592 26.7798 24.2228 26.6607 24.2937L22.0106 26.9576C21.9763 26.9768 21.9488 26.9813 21.9256 26.9807C21.8989 26.98 21.8679 26.972 21.8377 26.9544C21.777 26.9189 21.75 26.8677 21.75 26.8088V21.4732Z" fill="#4686F3"/>
<path fill-rule="evenodd" clip-rule="evenodd" d="M13.5 31.5C13.5 33.1569 14.8431 34.5 16.5 34.5H32.5V38.5H34.5V34.5H38.5V32.5H34.5V16.5C34.5 14.8431 33.1569 13.5 31.5 13.5H15.5V9.5H13.5V13.5H9.5V15.5H13.5V31.5ZM32.5 16.5V32.5H16.5C15.9477 32.5 15.5 32.0523 15.5 31.5V15.5H31.5C32.0523 15.5 32.5 15.9477 32.5 16.5Z" fill="#4686F3"/>
</svg>
