<?xml version="1.0" encoding="UTF-8"?>
<svg width="14px" height="12px" viewBox="0 0 14 12" version="1.1" xmlns="http://www.w3.org/2000/svg" xmlns:xlink="http://www.w3.org/1999/xlink">
    <!-- Generator: Sketch 52.4 (67378) - http://www.bohemiancoding.com/sketch -->
    <title>calandar</title>
    <desc>Created with Sketch.</desc>
    <defs>
        <path d="M9.92698943,6.53989705 L4.07145242,6.53989705 C3.80189204,6.53989705 3.5837507,6.3211714 3.5837507,6.05088898 L3.5837507,6.05088898 C3.5837507,5.78060657 3.80189204,5.56188091 4.07145242,5.56188091 L9.92854758,5.56188091 C10.198108,5.56188091 10.4162493,5.78060657 10.4162493,6.05088898 L10.4162493,6.05088898 C10.4146912,6.3211714 10.1965498,6.53989705 9.92698943,6.53989705 L9.92698943,6.53989705 Z M9.92698943,3.89175431 L4.07145242,3.89175431 C3.80189204,3.89175431 3.5837507,3.67302866 3.5837507,3.40274624 L3.5837507,3.40274624 C3.5837507,3.13246383 3.80189204,2.91373817 4.07145242,2.91373817 L9.92854758,2.91373817 C10.198108,2.91373817 10.4162493,3.13246383 10.4162493,3.40274624 L10.4162493,3.40274624 C10.4146912,3.67302866 10.1965498,3.89175431 9.92698943,3.89175431 L9.92698943,3.89175431 Z M12.8765721,11.1237618 L11.0753478,11.1237618 L11.0753478,11.5096564 C11.0753478,11.7799388 10.8572065,11.9986644 10.5876461,11.9986644 L10.5876461,11.9986644 C10.3180857,11.9986644 10.0999444,11.7799388 10.0999444,11.5096564 L10.0999444,11.1237618 L3.8984975,11.1237618 L3.8984975,11.5096564 C3.8984975,11.7799388 3.68035615,11.9986644 3.41079577,11.9986644 L3.41079577,11.9986644 C3.14123539,11.9986644 2.92309405,11.7799388 2.92309405,11.5096564 L2.92309405,11.1237618 L1.12186978,11.1237618 C0.501725097,11.1237618 0,10.6206928 0,9.99888703 L0,1.12487479 C0,0.503069004 0.501725097,-3.55271368e-15 1.12186978,-3.55271368e-15 L12.8781302,-3.55271368e-15 C13.4982749,-3.55271368e-15 14,0.503069004 14,1.12487479 L14,9.99888703 C13.9984418,10.6191305 13.4967168,11.1237618 12.8765721,11.1237618 L12.8765721,11.1237618 Z M1.12186978,9.99888703 L2.9246522,9.99888703 L2.9246522,9.74579021 C2.9246522,9.47550779 3.14279354,9.25678214 3.41235392,9.25678214 L3.41235392,9.25678214 C3.6819143,9.25678214 3.90005565,9.47550779 3.90005565,9.74579021 L3.90005565,9.99888703 L10.1015025,9.99888703 L10.1015025,9.74579021 C10.1015025,9.47550779 10.3196439,9.25678214 10.5892042,9.25678214 L10.5892042,9.25678214 C10.8587646,9.25678214 11.076906,9.47550779 11.076906,9.74579021 L11.076906,9.99888703 L12.8796884,9.99888703 L12.8796884,9.99888703 L12.8796884,8.46624513 L1.12186978,8.46624513 L1.12186978,9.99888703 L1.12186978,9.99888703 L1.12186978,9.99888703 Z M12.8765721,1.12487479 L1.12186978,1.12487479 L1.12186978,1.12487479 L1.12186978,7.49291597 L12.8781302,7.49291597 L12.8781302,1.12487479 L12.8765721,1.12487479 L12.8765721,1.12487479 Z" id="path-1"></path>
    </defs>
    <g id="预览页面" stroke="none" stroke-width="1" fill="none" fill-rule="evenodd">
        <g id="Artboard" transform="translate(-149.000000, -110.000000)">
            <g id="calandar" transform="translate(148.000000, 108.000000)">
                <rect id="Rectangle" fill="#D8D8D8" opacity="0" x="0" y="0" width="16" height="16"></rect>
                <g id="↳Color/Caption" transform="translate(1.000000, 2.000000)">
                    <mask id="mask-2" fill="white">
                        <use xlink:href="#path-1"></use>
                    </mask>
                    <path stroke-opacity="0.25" stroke="#2F3033" d="M9.92698943,6.03989705 L4.07145242,6.03989705 C4.07833427,6.03989705 4.0837507,6.04532799 4.0837507,6.05088898 C4.0837507,6.05644998 4.07833427,6.06188091 4.07145242,6.06188091 L9.92854758,6.06188091 C9.92166573,6.06188091 9.9162493,6.05644998 9.9162493,6.05088898 C9.91627949,6.04421243 9.92059284,6.03989705 9.92698943,6.03989705 Z M9.92698943,3.39175431 L4.07145242,3.39175431 C4.07833427,3.39175431 4.0837507,3.39718525 4.0837507,3.40274624 C4.0837507,3.40830724 4.07833427,3.41373817 4.07145242,3.41373817 L9.92854758,3.41373817 C9.92166573,3.41373817 9.9162493,3.40830724 9.9162493,3.40274624 C9.91627949,3.39606969 9.92059284,3.39175431 9.92698943,3.39175431 Z M1.12186978,10.6237618 L12.8765721,10.6237618 C13.219704,10.6237618 13.4991325,10.3435848 13.5,9.99888703 L13.5,1.12487479 C13.5,0.778912414 13.2218327,0.5 12.8781302,0.5 L1.12186978,0.5 C0.778167323,0.5 0.5,0.778912414 0.5,1.12487479 L0.5,9.99888703 C0.5,10.3448494 0.778167323,10.6237618 1.12186978,10.6237618 Z M13.3796884,10.498887 L0.621869783,10.498887 L0.621869783,7.96624513 L13.3796884,7.96624513 L13.3796884,10.498887 Z M0.621869783,0.624874791 L13.3781302,0.624874791 L13.3781302,7.99291597 L0.621869783,7.99291597 L0.621869783,0.624874791 Z"></path>
                </g>
            </g>
        </g>
    </g>
</svg>