<?xml version="1.0" encoding="UTF-8"?>
<svg width="30px" height="24px" viewBox="0 0 30 24" version="1.1" xmlns="http://www.w3.org/2000/svg" xmlns:xlink="http://www.w3.org/1999/xlink">
    <!-- Generator: Sketch 52.4 (67378) - http://www.bohemiancoding.com/sketch -->
    <title>周期</title>
    <desc>Created with Sketch.</desc>
    <g id="预览页面" stroke="none" stroke-width="1" fill="none" fill-rule="evenodd">
        <g id="Artboard" transform="translate(-277.000000, -284.000000)" fill-rule="nonzero">
            <g id="周期" transform="translate(276.000000, 280.000000)">
                <rect id="Rectangle" fill="#000000" opacity="0" x="0" y="0" width="32" height="32"></rect>
                <g id="Group-2" transform="translate(1.828571, 4.571429)">
                    <path d="M4.57142857,3.51648352 L4.57142857,1.05494505 C4.57142857,0.471208788 4.97980952,0 5.48571429,0 C5.99161905,0 6.4,0.471208788 6.4,1.05494505 L6.4,3.51648352 C6.4,4.10021978 5.99161905,4.57142857 5.48571429,4.57142857 C4.97980952,4.57142857 4.57142857,4.10021978 4.57142857,3.51648352 Z M15.5428571,4.57142857 C16.0487619,4.57142857 16.4571429,4.10021978 16.4571429,3.51648352 L16.4571429,1.05494505 C16.4571429,0.471208788 16.0487619,0 15.5428571,0 C15.0369524,0 14.6285714,0.471208788 14.6285714,1.05494505 L14.6285714,3.51648352 C14.6285714,4.10021978 15.0369524,4.57142857 15.5428571,4.57142857 Z M21.0285714,8.89748056 C20.6058208,8.80334145 20.1672441,8.75379942 19.7175796,8.75379942 C16.2647421,8.75379942 13.4656642,11.6749169 13.4656642,15.2782979 C13.4656642,17.185482 14.2497793,18.9015413 15.4999277,20.0945256 C15.3490153,20.1076196 15.1948054,20.1142857 15.0372732,20.1142857 L1.84461153,20.1142857 C0.826385957,20.1142857 -3.55271368e-15,19.2427964 -3.55271368e-15,18.168997 L-3.55271368e-15,3.77386018 C-3.55271368e-15,2.70006078 0.826385957,1.82857143 1.84461153,1.82857143 L3.32030075,1.82857143 L3.32030075,2.60668694 C3.32030075,3.68048635 4.14668671,4.5519757 5.16491228,4.5519757 C6.18313785,4.5519757 7.00952381,3.68048635 7.00952381,2.60668694 L7.00952381,1.82857143 L14.0190476,1.82857143 L14.0190476,2.60668694 C14.0190476,3.68048635 14.8454336,4.5519757 15.8636591,4.5519757 C16.8818847,4.5519757 17.7082707,3.68048635 17.7082707,2.60668694 L17.7082707,1.82857143 L19.1839599,1.82857143 C20.2021855,1.82857143 21.0285714,2.70006078 21.0285714,3.77386018 L21.0285714,8.89748056 Z M13.7142857,7.31428571 L8.22857143,7.31428571 L8.22857143,9.03913565 L12.0365011,9.03913565 C11.2735648,10.0917167 10.655789,11.2518607 10.1831736,12.5118847 C9.71393406,13.7757503 9.43374064,15.0895558 9.33921759,16.4571429 L11.0845187,16.4571429 C11.0912703,15.8463385 11.155411,15.1894358 11.2735648,14.4864346 C11.3917187,13.7795918 11.5605099,13.0842737 11.7799385,12.3966387 C11.9993671,11.7090036 12.269433,11.0597839 12.5935121,10.4489796 C12.920967,9.83817527 13.2923077,9.32725092 13.7142857,8.90852342 L13.7142857,7.31428571 Z" id="Shape" fill-opacity="0.45" fill="#00A7E1"></path>
                    <circle id="Oval" fill="#00A7E1" cx="21.9428571" cy="16.4571429" r="6.4"></circle>
                    <path d="M23.483366,16.6223358 L22.4313112,16.6223358 L22.4313112,13.649408 C22.4313112,13.1805348 22.1170975,12.8 21.7299413,12.8 C21.3427851,12.8 21.0285714,13.1805348 21.0285714,13.649408 L21.0285714,17.4717438 C21.0285714,17.940617 21.3427851,18.3211517 21.7299413,18.3211517 L23.483366,18.3211517 C23.8705221,18.3211517 24.1847358,17.940617 24.1847358,17.4717438 C24.1847358,17.0028706 23.8705221,16.6223358 23.483366,16.6223358 Z" id="Path" fill="#FFFFFF"></path>
                </g>
            </g>
        </g>
    </g>
</svg>