<svg xmlns="http://www.w3.org/2000/svg" width="32" height="32" viewBox="0 0 32 32">
  <g fill="none" fill-rule="evenodd">
    <circle cx="16" cy="16" r="16" fill="#80E9F8" opacity=".1"/>
    <g transform="translate(6.667 5.333)">
      <rect width="18.895" height="21.333" fill="#000" fill-rule="nonzero" opacity="0"/>
      <path fill="#0190CC" d="M9.18822059 13.515737C8.78686546 13.804042 8.54419661 14.3019364 8.54447179 14.8365448L8.54447179 19.914805C8.54447179 19.9822572 8.54820096 20.0489251 8.55565931 20.1142857L1.39844055 20.1142857C.626103163 20.1142857 0 19.4119748 0 18.5456304L0 16.8148806C0 14.9931489 1.31686486 13.5159984 2.94115356 13.5159984L9.18822059 13.5159984 9.18822059 13.515737zM6.32211667 1.21904762L8.55099785 1.21904762C10.224465 1.21904762 11.5809524 2.74064331 11.5809524 4.61780089L11.5809524 7.71772532C11.5809524 9.59488289 10.224465 11.1164786 8.55099785 11.1164786L6.32211667 11.1164786C4.64864948 11.1164786 3.29216214 9.59488289 3.29216214 7.71772532L3.29216214 4.61780089C3.29216214 2.74064331 4.64864948 1.21904762 6.32211667 1.21904762zM14.2059989 17.2888304C14.1938086 17.3425505 14.1872258 17.3993324 14.1872258 17.4577843L14.1872258 18.1163428C14.1872258 18.2935133 14.2488738 18.4634274 14.358608 18.5887058 14.4683421 18.7139843 14.6171735 18.784365 14.772361 18.784365L14.7789438 18.784365C15.102105 18.784365 15.3640789 18.4852813 15.3640789 18.1163428L15.3640789 17.4577843C15.3640789 17.3993324 15.3574962 17.3425505 15.3453058 17.2888304 15.7189745 17.0568169 15.9518821 16.6104123 15.9526274 16.1248018 15.9526274 15.3902558 15.4257619 14.7948811 14.7755305 14.7948811 14.1255428 14.7948811 13.5986774 15.3902558 13.5986774 16.1248018 13.5994226 16.6104123 13.8323303 17.0568169 14.2059989 17.2888304L14.2059989 17.2888304zM17.6934045 20.1142857L11.5553367 20.1142857C10.8734104 20.1142857 10.3619048 19.5292097 10.3619048 18.7490155L10.3619048 14.1652702C10.3619048 13.3850761 10.8734104 12.8 11.5553367 12.8L17.6934045 12.8C18.3755745 12.8 18.8870802 13.3850761 18.8870802 14.1652702L18.8870802 18.6513172C18.9724124 19.5292097 18.3755745 20.1142857 17.6931607 20.1142857L17.6934045 20.1142857z" opacity=".454"/>
      <path fill="#0190CC" d="M17.0666667,13.4095238 L12.1904762,13.4095238 L12.1904762,11.3100777 C12.1904762,10.497358 12.9769151,9.75238095 13.8421325,9.75238095 L15.3362318,9.75238095 C16.2800033,9.75238095 16.9876637,10.4298068 16.9876637,11.3100777 L16.9876637,13.4093324 L17.0662178,13.4093324 L17.0666667,13.4095238 Z M13.4095238,12.8 L15.847619,12.8 L15.847619,11.2996337 C15.847619,10.7995116 15.536519,10.3619048 15.1213822,10.3619048 L14.1357606,10.3619048 C13.7208259,10.3619048 13.4095238,10.7995116 13.4095238,11.2996337 L13.4095238,12.8 L13.4095238,12.8 Z" opacity=".454"/>
    </g>
  </g>
</svg>
