<?xml version="1.0" encoding="UTF-8"?>
<svg width="14px" height="8px" viewBox="0 0 14 8" version="1.1" xmlns="http://www.w3.org/2000/svg" xmlns:xlink="http://www.w3.org/1999/xlink">
    <!-- Generator: Sketch 56.3 (81716) - https://sketch.com -->
    <title>箭头01</title>
    <desc>Created with Sketch.</desc>
    <g id="预览页面" stroke="none" stroke-width="1" fill="none" fill-rule="evenodd">
        <g id="操作指引备份" transform="translate(-493.000000, -258.000000)" fill="currentColor" fill-rule="nonzero">
            <g id="编组-3" transform="translate(429.000000, 255.000000)">
                <g id="箭头01" transform="translate(64.000000, 0.000000)">
                    <rect id="矩形" opacity="0" x="0" y="0" width="14" height="14"></rect>
                    <path d="M12.9910156,7.3171875 C12.99375,7.31308594 12.9964844,7.31035156 13.0005859,7.30625 C13.0033203,7.30214844 13.0060547,7.29941406 13.0087891,7.2953125 C13.0115234,7.29257813 13.0142578,7.28847656 13.015625,7.28574219 L13.0238281,7.2734375 C13.0265625,7.27070313 13.0279297,7.26796875 13.0292969,7.26386719 C13.0320313,7.25976563 13.0347656,7.25429688 13.0375,7.25019531 C13.0388672,7.24746094 13.0402344,7.24472656 13.0429688,7.24199219 C13.0457031,7.23652344 13.0484375,7.23242188 13.0511719,7.22695313 L13.0552734,7.21875 C13.0580078,7.21328125 13.0607422,7.20917969 13.0634766,7.20371094 C13.0648438,7.20097656 13.0662109,7.196875 13.0675781,7.19414063 C13.0703125,7.19003906 13.0716797,7.18457031 13.0744141,7.18046875 C13.0757813,7.17636719 13.0771484,7.17226562 13.0798828,7.16816406 C13.08125,7.1640625 13.0826172,7.15996094 13.0853516,7.15585938 C13.0867188,7.15039063 13.0894531,7.14628906 13.0908203,7.14082031 C13.0921875,7.13808594 13.0935547,7.13398438 13.0949219,7.13125 L13.0990234,7.11484375 C13.1003906,7.11210937 13.1003906,7.109375 13.1017578,7.10527344 L13.1058594,7.08886719 C13.1072266,7.08613281 13.1072266,7.08203125 13.1085938,7.07929687 C13.1099609,7.07382812 13.1099609,7.06835937 13.1113281,7.06425781 C13.1113281,7.06015625 13.1126953,7.05742187 13.1126953,7.05332031 C13.1140625,7.04921875 13.1140625,7.04375 13.1140625,7.03828125 C13.1140625,7.03417969 13.1154297,7.03007812 13.1154297,7.02597656 C13.1154297,7.021875 13.1167969,7.01777344 13.1167969,7.01230469 C13.1167969,7.00683594 13.1182692,7.00273437 13.1182692,6.99726562 L13.1182692,6.98496094 L13.1182692,6.96992187 L13.1182692,6.96582031 L13.1182692,6.95898437 L13.1182692,6.95078125 C13.1208984,6.80996094 13.0703125,6.66640625 12.9636719,6.55703125 L10.0242188,3.53554687 C9.81367188,3.31953125 9.46777344,3.3140625 9.25039063,3.52460937 C9.034375,3.73515625 9.02890625,4.08105469 9.23945313,4.2984375 L11.3025391,6.41894531 L1.42871094,6.41894531 C1.1265625,6.41894531 0.881835938,6.66367187 0.881835938,6.96582031 C0.881835938,7.26796875 1.1265625,7.51269531 1.42871094,7.51269531 L11.3039063,7.51269531 L9.23398438,9.70703125 C9.02617187,9.92714844 9.03710938,10.2730469 9.25585938,10.4794922 C9.36113281,10.5792969 9.49648438,10.6285156 9.63046875,10.6285156 C9.77539063,10.6285156 9.9203125,10.5710938 10.0283203,10.45625 L12.9677734,7.34042969 C12.9691406,7.3390625 12.9705078,7.33769531 12.9705078,7.33632813 C12.9746094,7.33222656 12.9773438,7.32949219 12.9800781,7.32539063 C12.9855469,7.32402344 12.9882813,7.31992188 12.9910156,7.3171875 Z" id="路径" fill-opacity="0.65"></path>
                </g>
            </g>
        </g>
    </g>
</svg>