<?xml version="1.0" encoding="UTF-8"?>
<svg width="14px" height="14px" viewBox="0 0 14 14" version="1.1" xmlns="http://www.w3.org/2000/svg" xmlns:xlink="http://www.w3.org/1999/xlink">
    <!-- Generator: Sketch 52.4 (67378) - http://www.bohemiancoding.com/sketch -->
    <title>leading-out</title>
    <desc>Created with Sketch.</desc>
    <g id="预览页面" stroke="none" stroke-width="1" fill="none" fill-rule="evenodd">
        <g id="Artboard" transform="translate(-541.000000, -104.000000)">
            <g id="leading-out" transform="translate(540.000000, 103.000000)">
                <rect id="Rectangle" fill="#000000" opacity="0" x="0" y="0" width="16" height="16"></rect>
                <path d="M8.06865625,1.60467188 C8.23223438,1.60467188 8.37004687,1.66079688 8.48198437,1.77254688 L11.3892187,4.67978125 C11.5011562,4.79171875 11.5570937,4.92946875 11.5570937,5.09309375 C11.5570937,5.25978125 11.5018281,5.39828125 11.3914687,5.50871875 C11.2809687,5.61928125 11.1424375,5.67446875 10.975875,5.67446875 C10.8122031,5.67446875 10.6743281,5.61846875 10.5624531,5.50653125 L8.65025,3.58965625 L8.65025,10.326 C8.65025,10.4864062 8.59345313,10.6235156 8.47990625,10.7371875 C8.36620313,10.8507969 8.22914063,10.907625 8.06871875,10.907625 C7.90807813,10.907625 7.77107813,10.8507969 7.65746875,10.7371875 C7.54378125,10.6235156 7.48684375,10.4863906 7.48684375,10.326 L7.48684375,3.58965625 L5.57490625,5.50653125 C5.45678125,5.61853125 5.31903125,5.67446875 5.16140625,5.67446875 C5.00078125,5.67446875 4.86390625,5.61759375 4.75021875,5.50403125 C4.63653125,5.39040625 4.57965625,5.25321875 4.57965625,5.09278125 C4.57965625,4.93521875 4.63553125,4.79734375 4.74753125,4.67940625 L7.65473438,1.77217187 C7.76660938,1.66017187 7.90460938,1.60429687 8.068125,1.60429687 L8.06865625,1.60467188 Z M13.814125,9.74428125 C13.9745,9.74428125 14.1117031,9.80114062 14.2252031,9.91478125 C14.3387656,10.0284531 14.3957031,10.1655781 14.3957031,10.3261562 L14.3957031,12.6514375 C14.3957031,13.1360937 14.2277656,13.5463906 13.8915781,13.8825781 C13.5494531,14.2245937 13.1405781,14.3957031 12.6651406,14.3957031 L3.34848437,14.3957031 C2.87321875,14.3957031 2.46142188,14.2260937 2.11317187,13.8868281 C1.77385937,13.5385937 1.60429687,13.1267812 1.60429687,12.6514531 L1.60429687,10.3261563 C1.60429687,10.1654531 1.66107812,10.0284531 1.77473437,9.91478125 C1.88842187,9.80114063 2.0255,9.74428125 2.186,9.74428125 C2.34640625,9.74428125 2.4835,9.80114063 2.5971875,9.91478125 C2.71082812,10.0284531 2.767625,10.1655781 2.767625,10.3261563 L2.767625,12.6514375 C2.767625,12.8119062 2.82440625,12.9490781 2.93815625,13.06275 C3.0518125,13.1763906 3.1888125,13.233 3.349375,13.233 L12.665875,13.233 C12.8233125,13.233 12.957375,13.1763906 13.0678906,13.06275 C13.1783906,12.9490781 13.2336875,12.8118906 13.2336875,12.6514375 L13.2336875,10.3261563 C13.2336875,10.1654531 13.2905156,10.0284531 13.404125,9.91478125 C13.5178281,9.80114063 13.6548281,9.74428125 13.8152656,9.74428125 L13.814125,9.74428125 Z" id="Shape" fill="#00A7E1" fill-rule="nonzero"></path>
            </g>
        </g>
    </g>
</svg>