<?xml version="1.0" encoding="UTF-8"?>
<svg width="28px" height="25px" viewBox="0 0 28 25" version="1.1" xmlns="http://www.w3.org/2000/svg" xmlns:xlink="http://www.w3.org/1999/xlink">
    <!-- Generator: Sketch 52.4 (67378) - http://www.bohemiancoding.com/sketch -->
    <title>访问管理</title>
    <desc>Created with Sketch.</desc>
    <g id="预览页面" stroke="none" stroke-width="1" fill="none" fill-rule="evenodd">
        <g id="Artboard" transform="translate(-107.000000, -275.000000)">
            <g id="访问管理" transform="translate(105.000000, 271.000000)">
                <rect id="Rectangle" fill="#D8D8D8" opacity="0" x="0" y="0" width="32" height="32"></rect>
                <g id="Group-4" transform="translate(2.000000, 4.000000)" fill="#00A7E1" fill-rule="nonzero">
                    <path d="M13.6156091,15.2219086 C13.0208591,15.6491348 12.6612591,16.386942 12.6616669,17.179154 L12.6616669,24.7043986 C12.6616669,24.8043529 12.667193,24.903145 12.6782452,25 L2.0722859,25 C0.927794001,25 -7.26904706e-14,23.9592772 -7.28306304e-14,22.6754805 L-7.28306304e-14,20.1107606 C-7.28306304e-14,17.4112186 1.95140256,15.222296 4.35836263,15.222296 L13.6156091,15.222296 L13.6156091,15.2219086 Z M9.36845919,-5.29485629e-14 L12.6713375,-5.29485629e-14 C15.151173,-5.29485629e-14 17.1612903,1.79357466 17.1612903,4.00626642 L17.1612903,7.66028956 C17.1612903,9.87298132 15.151173,11.666556 12.6713375,11.666556 L9.36845919,11.666556 C6.88862372,11.666556 4.8785064,9.87298132 4.8785064,7.66028956 L4.8785064,4.00626642 C4.8785064,1.79357466 6.88862372,-5.32907052e-14 9.36845919,-5.29485629e-14 Z" id="Shape" opacity="0.3"></path>
                    <path d="M21.0512283,20.8130854 C21.033164,20.8926908 21.0234093,20.9768333 21.0234093,21.0634506 L21.0234093,22.0393387 C21.0234093,22.3018796 21.1147626,22.5536676 21.2773727,22.7393121 C21.4399827,22.9249565 21.6605293,23.0292505 21.8904946,23.0292505 L21.9002493,23.0292505 C22.3791274,23.0292505 22.7673347,22.5860519 22.7673347,22.0393387 L22.7673347,21.0634506 C22.7673347,20.9768333 22.75758,20.8926908 22.7395157,20.8130854 C23.2932384,20.4692751 23.6383737,19.8077682 23.6394781,19.088164 C23.6394781,17.9996735 22.8587399,17.1174145 21.8951913,17.1174145 C20.932004,17.1174145 20.1512659,17.9996735 20.1512659,19.088164 C20.1523702,19.8077682 20.4975055,20.4692751 21.0512283,20.8130854 Z M26.219057,25 L17.1233316,25 C16.1128158,25 15.3548387,24.1330022 15.3548387,22.9768677 L15.3548387,16.1844226 C15.3548387,15.0282881 16.1128158,14.1612903 17.1233316,14.1612903 L26.219057,14.1612903 C27.229934,14.1612903 27.9879112,15.0282881 27.9879112,16.1844226 L27.9879112,22.8320931 C28.1143611,24.1330022 27.229934,25 26.2186957,25 L26.219057,25 Z" id="Shape"></path>
                    <path d="M25.2903226,16.8709677 L18.0645161,16.8709677 L18.0645161,12.7228686 C18.0645161,11.1170918 19.2299044,9.64516129 20.5120311,9.64516129 L22.7260693,9.64516129 C24.1246017,9.64516129 25.1732516,10.9836237 25.1732516,12.7228686 L25.1732516,16.8705896 L25.2896574,16.8705896 L25.2903226,16.8709677 Z M19.6705835,15.9344222 L23.6845878,15.9344222 L23.6845878,13.1758285 C23.6845878,12.2562973 23.1724023,11.4517074 22.488934,11.4517074 L20.8662373,11.4517074 C20.1831016,11.4517074 19.6705835,12.2562973 19.6705835,13.1758285 L19.6705835,15.9344222 Z" id="Shape"></path>
                </g>
            </g>
        </g>
    </g>
</svg>