<svg xmlns="http://www.w3.org/2000/svg" width="32" height="32" viewBox="0 0 32 32">
  <g fill="none">
    <circle cx="16" cy="16" r="16" fill="#80E9F8" opacity=".1"/>
    <path fill="#0190CC" d="M4.85842698,8.46217226 L8.47340824,8.46217226 L8.47340824,5.15280898 L5.27265916,5.15280898 C5.01929929,6.23842091 4.88046292,7.34760557 4.85842698,8.46217226 L4.85842698,8.46217226 Z M5.29213482,12.588015 L8.47340824,12.588015 L8.47340824,9.19250934 L4.85842698,9.19250934 C4.88089889,10.3370786 5.02621725,11.4749063 5.29213482,12.588015 Z M5.46441948,4.42322096 L8.47340824,4.42322096 L8.47340824,0.0119850026 C8.21123596,0.0269662658 7.94906367,0.053183506 7.68838952,0.0913857488 C6.72584272,1.24419474 5.95805246,2.72659175 5.46441948,4.4224719 L5.46441948,4.42322096 Z M4.54082395,5.15280898 L0.853932593,5.15280898 C0.363221735,6.19157397 0.0773570195,7.31519521 0.0119850026,8.46217226 L4.1258427,8.46217226 C4.15131087,7.30711608 4.2951311,6.19625466 4.54082395,5.15280898 L4.54082395,5.15280898 Z M12.5423221,5.15280898 L9.12883893,5.15280898 L9.12883893,8.46217226 L12.929588,8.46217226 C12.9159158,7.34858666 12.7861249,6.23946441 12.5423221,5.15280898 L12.5423221,5.15280898 Z M16.7370786,4.4224719 C15.4908121,2.31140568 13.4376275,0.799785753 11.0516854,0.236704108 C11.9333333,1.37752809 12.635955,2.8059925 13.0891386,4.4224719 L16.7370786,4.4224719 L16.7370786,4.4224719 Z M10.1947566,0.0794007461 C9.84134338,0.0317835321 9.4854066,0.00526962021 9.12883893,0 L9.12883893,4.4224719 L12.3588015,4.4224719 C11.8846442,2.72958801 11.1355805,1.24419474 10.1940075,0.0794007461 L10.1947566,0.0794007461 Z M4.12509363,9.19250934 L0,9.19250934 C0.0269663053,10.3985018 0.289887654,11.5445693 0.746067411,12.588015 L4.56104867,12.588015 C4.29427115,11.4751093 4.14811026,10.3367119 4.12509363,9.19250934 L4.12509363,9.19250934 Z M1.1048689,13.318352 C2.37140309,15.6201641 4.57978125,17.2542873 7.15131085,17.7925094 C6.11460672,16.6284644 5.28464417,15.0913858 4.75730338,13.318352 L1.10636703,13.318352 L1.1048689,13.318352 Z M6.81348314,0.262172283 C4.47395468,0.847388999 2.46676518,2.34623798 1.24119848,4.42322096 L4.7318352,4.42322096 C5.20074907,2.81123596 5.91835205,1.39026216 6.81423221,0.263670413 L6.81348314,0.262172283 Z M10.4524344,17.8606742 C13.1754216,17.4106645 15.5415145,15.7364536 16.8719101,13.318352 L12.988015,13.318352 C12.4284644,15.1385768 11.5483146,16.7033708 10.4524344,17.8606742 L10.4524344,17.8606742 Z M13.6606741,8.4614232 L17.965543,8.4614232 C17.9002391,7.3145219 17.6146373,6.19093439 17.1243446,5.15205991 L13.2741573,5.15205991 C13.517603,6.23820223 13.647191,7.34756552 13.6606741,8.4614232 L13.6606741,8.4614232 Z M9.12808986,13.317603 L9.12808986,17.976779 C9.29513107,17.9737828 9.46142321,17.9670412 9.62771536,17.9543071 C10.7662921,16.788764 11.6801498,15.188015 12.2554307,13.317603 L9.12883893,13.317603 L9.12808986,13.317603 Z M8.0059925,17.9258427 C8.16179774,17.9423221 8.31685394,17.9558052 8.47265917,17.9640449 L8.47265917,13.317603 L5.48988762,13.317603 C6.03745316,15.1602996 6.91161048,16.7475655 8.00674157,17.9258427 L8.0059925,17.9258427 Z M12.9243446,9.19176028 L9.12883893,9.19176028 L9.12883893,12.5872659 L12.4606742,12.5872659 C12.7378277,11.4756554 12.893633,10.3370786 12.9250936,9.19176028 L12.9243446,9.19176028 Z M15.2749063,9.19176028 L13.6554307,9.19176028 C13.6238236,10.3370085 13.4683616,11.4754726 13.1917603,12.5872659 L17.2307116,12.5872659 C17.6876404,11.5438202 17.9498127,10.3970037 17.9775281,9.19176028 L15.2749063,9.19176028 Z" opacity=".45" transform="translate(7 7)"/>
  </g>
</svg>
