<?xml version="1.0" encoding="UTF-8"?>
<svg width="14px" height="14px" viewBox="0 0 14 14" version="1.1" xmlns="http://www.w3.org/2000/svg" xmlns:xlink="http://www.w3.org/1999/xlink">
    <!-- Generator: Sketch 52.4 (67378) - http://www.bohemiancoding.com/sketch -->
    <title>search</title>
    <desc>Created with Sketch.</desc>
    <g id="预览页面" stroke="none" stroke-width="1" fill="none" fill-rule="evenodd">
        <g id="Artboard" transform="translate(-583.000000, -101.000000)">
            <g id="search" transform="translate(581.996000, 100.000000)">
                <rect id="Rectangle" fill="#000000" fill-rule="nonzero" opacity="0" x="0" y="0" width="16" height="16"></rect>
                <path d="M13.5957163,13.4418855 L9.48986013,9.33602941 L9.7591953,8.98783185 C10.3226683,8.25937166 10.625,7.37111475 10.625,6.4375 C10.625,5.31889282 10.1899579,4.27033915 9.3976972,3.4766787 C8.60763564,2.68522127 7.55703852,2.25 6.4375,2.25 C5.31933199,2.25 4.26815442,2.68582736 3.4766787,3.4773028 C2.68479834,4.26778655 2.25,5.31699766 2.25,6.4375 C2.25,7.55566801 2.68582736,8.60684558 3.4773028,9.3983213 C4.26778655,10.1902017 5.31699766,10.625 6.4375,10.625 C7.37026387,10.625 8.25736078,10.3231782 8.98674495,9.76039037 L9.33477632,9.49185177 L9.6456728,9.80262853 L13.4408761,13.5963705 L13.5957163,13.4418855 Z M8.55915531,8.55873789 C8.55922497,8.55866841 8.55929462,8.55859893 8.55936427,8.55852944 L8.55894661,8.55894661 C8.55901618,8.55887704 8.55908575,8.55880747 8.55915531,8.55873789 Z M9.26605339,9.26605339 L9.26563573,9.26647056 C8.50923206,10.0210903 7.50404049,10.4375 6.4375,10.4375 C5.37095951,10.4375 4.36576794,10.0210903 3.60852944,9.26563573 C2.85390974,8.50923206 2.4375,7.50404049 2.4375,6.4375 C2.4375,5.37031441 2.85438389,4.36350933 3.60936427,3.60852944 C4.36576794,2.85390974 5.37095951,2.4375 6.4375,2.4375 C7.50610679,2.4375 8.51272646,2.85383827 9.26647056,3.60936427 C10.0210903,4.36576794 10.4375,5.37095951 10.4375,6.4375 C10.4375,7.50468559 10.0206161,8.51149067 9.26605339,9.26605339 Z" id="Shape" stroke-opacity="0.25" stroke="#000000"></path>
            </g>
        </g>
    </g>
</svg>