<svg xmlns="http://www.w3.org/2000/svg" width="32" height="32" viewBox="0 0 32 32">
  <g fill="none">
    <circle cx="16" cy="16" r="16" fill="#80E9F8" opacity=".1"/>
    <g transform="translate(4.667 4.667)">
      <rect width="23.333" height="23.333" fill="#000" opacity="0"/>
      <path fill="#0190CC" d="M5,6.56410257 L5,4.76923077 C5,4.34358974 5.29777778,4 5.66666667,4 C6.03555556,4 6.33333333,4.34358974 6.33333333,4.76923077 L6.33333333,6.56410257 C6.33333333,6.98974359 6.03555556,7.33333333 5.66666667,7.33333333 C5.29777778,7.33333333 5,6.98974359 5,6.56410257 Z M13,7.33333333 C13.3688889,7.33333333 13.6666667,6.98974359 13.6666667,6.56410257 L13.6666667,4.76923077 C13.6666667,4.34358974 13.3688889,4 13,4 C12.6311111,4 12.3333333,4.34358974 12.3333333,4.76923077 L12.3333333,6.56410257 C12.3333333,6.98974359 12.6311111,7.33333333 13,7.33333333 Z M4.0877193,5.33333333 L4.0877193,5.90070923 C4.0877193,6.68368796 4.69029239,7.31914895 5.43274854,7.31914895 C6.17520468,7.31914895 6.77777778,6.68368796 6.77777778,5.90070923 L6.77777778,5.33333333 L11.8888889,5.33333333 L11.8888889,5.90070923 C11.8888889,6.68368796 12.491462,7.31914895 13.2339181,7.31914895 C13.9763743,7.31914895 14.5789474,6.68368796 14.5789474,5.90070923 L14.5789474,5.33333333 L15.6549708,5.33333333 C16.3974269,5.33333333 17,5.96879432 17,6.75177305 L17.0007149,10.4879055 C16.6922388,10.419159 16.3722023,10.3829787 16.0440685,10.3829787 C13.5263744,10.3829787 11.4853801,12.5129602 11.4853801,15.1404255 C11.4853801,16.5306426 12.0567707,17.7815857 12.9678361,18.6514362 C12.8586786,18.661805 12.7462234,18.6666667 12.631345,18.6666667 L3.01169591,18.6666667 C2.26923976,18.6666667 1.66666667,18.0312057 1.66666667,17.2482269 L1.66666667,6.75177305 C1.66666667,5.96879432 2.26923976,5.33333333 3.01169591,5.33333333 L4.0877193,5.33333333 Z M11.6666667,9.33333333 L7.66666667,9.33333333 L7.66666667,10.5910364 L10.443282,10.5910364 C9.88697435,11.3585434 9.43651281,12.2044818 9.09189743,13.1232493 C8.74974358,14.0448179 8.54543588,15.0028011 8.47651282,16 L9.7491282,16 C9.75405129,15.5546218 9.8008205,15.0756302 9.88697437,14.5630252 C9.97312821,14.047619 10.0962051,13.5406162 10.2562051,13.0392157 C10.4162052,12.5378151 10.6131282,12.0644258 10.8494359,11.6190476 C11.0882051,11.1736695 11.3589744,10.8011205 11.6666667,10.4957983 L11.6666667,9.33333333 Z" opacity=".45"/>
      <circle cx="17.667" cy="16" r="4.667" fill="#0190CC" opacity=".45"/>
      <path fill="#F2FCFE" d="M18.7899543,15.6589147 L18.0228311,15.6589147 L18.0228311,13.8501292 C18.0228311,13.5648579 17.7937169,13.3333333 17.5114155,13.3333333 C17.2291142,13.3333333 17,13.5648579 17,13.8501292 L17,16.1757106 C17,16.4609819 17.2291142,16.6925065 17.5114155,16.6925065 L18.7899543,16.6925065 C19.0722557,16.6925065 19.3013699,16.4609819 19.3013699,16.1757106 C19.3013699,15.8904393 19.0722557,15.6589147 18.7899543,15.6589147 Z"/>
    </g>
  </g>
</svg>
