<?xml version="1.0" encoding="UTF-8"?>
<svg width="14px" height="14px" viewBox="0 0 14 14" version="1.1" xmlns="http://www.w3.org/2000/svg" xmlns:xlink="http://www.w3.org/1999/xlink">
    <!-- Generator: Sketch 56.3 (81716) - https://sketch.com -->
    <title>edit</title>
    <desc>Created with Sketch.</desc>
    <g id="预览页面" stroke="none" stroke-width="1" fill="none" fill-rule="evenodd">
        <g id="3空间概览-copy-3" transform="translate(-961.000000, -501.000000)">
            <path d="M302,480.5 C300.067003,480.5 298.5,482.067003 298.5,484 L298.5,830 C298.5,831.932997 300.067003,833.5 302,833.5 L1886,833.5 C1887.933,833.5 1889.5,831.932997 1889.5,830 L1889.5,484 C1889.5,482.067003 1887.933,480.5 1886,480.5 L302,480.5 Z" id="Rectangle-Copy" stroke="#E8E8E8"></path>
            <g id="edit" transform="translate(960.000000, 500.000000)" fill-rule="nonzero">
                <rect id="Rectangle" fill="#000000" opacity="0" x="0" y="0" width="16" height="16"></rect>
                <path d="M4.0265625,11.75 C4.0578125,11.75 4.0890625,11.746875 4.1203125,11.7421875 L6.7484375,11.28125 C6.7796875,11.275 6.809375,11.2609375 6.83125,11.2375 L13.4546875,4.6140625 C13.515625,4.553125 13.515625,4.4546875 13.4546875,4.39375 L10.8578125,1.7953125 C10.828125,1.765625 10.7890625,1.75 10.746875,1.75 C10.7046875,1.75 10.665625,1.765625 10.6359375,1.7953125 L4.0125,8.41875 C3.9890625,8.4421875 3.975,8.4703125 3.96875,8.5015625 L3.5078125,11.1296875 C3.478125,11.303125 3.53125,11.471875 3.6546875,11.5953125 C3.7578125,11.6953125 3.8875,11.75 4.0265625,11.75 L4.0265625,11.75 Z M5.0796875,9.025 L10.746875,3.359375 L11.8921875,4.5046875 L6.225,10.1703125 L4.8359375,10.415625 L5.0796875,9.025 L5.0796875,9.025 Z M13.75,13.0625 L2.25,13.0625 C1.9734375,13.0625 1.75,13.2859375 1.75,13.5625 L1.75,14.125 C1.75,14.19375 1.80625,14.25 1.875,14.25 L14.125,14.25 C14.19375,14.25 14.25,14.19375 14.25,14.125 L14.25,13.5625 C14.25,13.2859375 14.0265625,13.0625 13.75,13.0625 Z" id="Shape" fill="#00A7E1"></path>
            </g>
        </g>
    </g>
</svg>
