<?xml version="1.0" encoding="UTF-8"?>
<svg width="30px" height="24px" viewBox="0 0 30 24" version="1.1" xmlns="http://www.w3.org/2000/svg" xmlns:xlink="http://www.w3.org/1999/xlink">
    <!-- Generator: Sketch 52.4 (67378) - http://www.bohemiancoding.com/sketch -->
    <title>Group 3</title>
    <desc>Created with Sketch.</desc>
    <g id="预览页面" stroke="none" stroke-width="1" fill="none" fill-rule="evenodd">
        <g id="Artboard" transform="translate(-161.000000, -278.000000)" fill-rule="nonzero">
            <g id="Group-3" transform="translate(160.000000, 275.000000)">
                <rect id="Rectangle" fill="#000000" opacity="0" x="0" y="0" width="32" height="32"></rect>
                <g id="钥匙" transform="translate(1.000000, 3.000000)">
                    <rect id="Rectangle" fill="#000000" opacity="0" x="12.7272727" y="7.14285714" width="17.2727273" height="16.9642857"></rect>
                    <path d="M25.6724845,23.336039 L17.0547882,23.336039 C15.0980177,23.336039 13.5123967,21.7787326 13.5123967,19.8569045 L13.5123967,11.3930955 C13.5123967,9.47126737 15.0980177,7.91396104 17.0547882,7.91396104 L25.6724845,7.91396104 C27.629255,7.91396104 29.214876,9.47126737 29.214876,11.3930955 L29.214876,19.8569045 C29.214876,21.7787326 27.629255,23.336039 25.6724845,23.336039 Z" id="Path" fill="#00A7E1"></path>
                    <path d="M24.5041322,12.45922 C24.5041322,10.9896595 23.255136,9.80254338 21.7143388,9.82165617 C20.3150209,9.84076895 19.1124475,10.9280739 19.0151806,12.2680922 C18.9201242,13.5805032 19.8154224,14.6996628 21.0533656,15.0075909 L21.0555762,15.0075909 L21.0555762,18.7260888 C21.0555762,18.8110345 21.0887354,18.8917329 21.148422,18.9554421 L21.9354001,19.7836627 C22.0127716,19.8664847 22.147619,19.8664847 22.2249904,19.7836627 L23.3590348,18.5944229 C23.4386168,18.5116009 23.4341956,18.3841823 23.3524029,18.3056076 L22.7732224,17.7492133 C22.6825873,17.6621439 22.6825873,17.5177362 22.7732224,17.4306669 L23.3966152,16.8317997 C23.5181989,16.7149994 23.5181989,16.5281189 23.3966152,16.4134422 L22.6472175,15.6935274 C22.5742672,15.6234472 22.5344762,15.5300069 22.5344762,15.4323194 L22.5344762,14.9948491 C23.6729418,14.6741791 24.5041322,13.6612016 24.5041322,12.45922 Z M21.7563405,11.2805985 C22.1454083,11.2805985 22.461526,11.5821557 22.461526,11.9537931 C22.461526,12.3275542 22.1454083,12.6269878 21.7563405,12.6269878 C21.3716939,12.6269878 21.0555762,12.3254306 21.0555762,11.9537931 C21.0555762,11.5800321 21.3716939,11.2805985 21.7563405,11.2805985 Z" id="Shape" fill="#FFFFFF"></path>
                    <path d="M11.7207792,23.4693878 L0.836038961,19.7537276 C0.641233766,19.6818116 0.519480519,19.5140076 0.519480519,19.2982596 L0.519480519,5.25066722 L11.7207792,8.60674732 L11.7207792,23.4693878 Z M0.519480519,4.29178719 L12.2077922,7.64786729 L23.8961039,4.29178719 L12.3538961,0.528183082 C12.2564935,0.504211081 12.1347403,0.504211081 12.0373377,0.528183082 L0.519480519,4.29178719 Z" id="Shape" fill-opacity="0.45" fill="#00A7E1"></path>
                </g>
            </g>
        </g>
    </g>
</svg>