<svg xmlns="http://www.w3.org/2000/svg" width="32" height="32" viewBox="0 0 32 32">
  <g fill="none">
    <circle cx="16" cy="16" r="16" fill="#80E9F8" opacity=".1"/>
    <g transform="translate(4.667 6)">
      <rect width="20" height="20" fill="#000" opacity="0"/>
      <path fill="#0190CC" d="M9.92857143,18.8571429 L1.94642857,16.0827833 C1.80357143,16.029086 1.71428571,15.9037924 1.71428571,15.7427005 L1.71428571,5.25383152 L9.92857143,7.75970466 L9.92857143,18.8571429 Z M1.71428571,4.53786777 L10.2857143,7.04374091 L18.8571429,4.53786777 L10.3928571,1.72771003 C10.3214286,1.70981094 10.2321429,1.70981094 10.1607143,1.72771003 L1.71428571,4.53786777 Z" opacity=".45"/>
      <g transform="translate(10.667 6.667)">
        <rect width="12.667" height="12.667" fill="#000" opacity="0"/>
        <path fill="#0190CC" d="M9.49315533,12.0909091 L3.17351134,12.0909091 C1.7385463,12.0909091 0.575757576,10.9281204 0.575757576,9.49315533 L0.575757576,3.17351134 C0.575757576,1.7385463 1.7385463,0.575757576 3.17351134,0.575757576 L9.49315533,0.575757576 C10.9281204,0.575757576 12.0909091,1.7385463 12.0909091,3.17351134 L12.0909091,9.49315533 C12.0909091,10.9281204 10.9281204,12.0909091 9.49315533,12.0909091 Z" opacity=".45"/>
        <path fill="#F2FCFE" d="M8.63636364,3.96955096 C8.63636364,2.87227908 7.72043305,1.98589906 6.59051515,2.00016994 C5.56434868,2.01444081 4.68246153,2.82629515 4.61113242,3.82684219 C4.54142443,4.80677574 5.19797644,5.64241487 6.10580144,5.87233455 L6.10742256,5.87233455 L6.10742256,8.64881294 C6.10742256,8.71223906 6.1317393,8.77249388 6.17550944,8.82006347 L6.75262676,9.43846813 C6.80936582,9.5003086 6.9082539,9.5003086 6.96499296,9.43846813 L7.79662551,8.55050246 C7.85498569,8.48866199 7.85174346,8.39352281 7.79176216,8.33485365 L7.36702975,7.91941257 C7.30056399,7.85440079 7.30056399,7.74657639 7.36702975,7.68156462 L7.82418448,7.23441047 C7.91334587,7.14719956 7.91334587,7.00766209 7.82418448,6.92203683 L7.27462613,6.38450047 C7.2211293,6.33217392 7.19194921,6.26240519 7.19194921,6.18946515 L7.19194921,5.86282063 C8.02682399,5.62338703 8.63636364,4.86703055 8.63636364,3.96955096 L8.63636364,3.96955096 Z M6.62131636,3.08951354 C6.90663279,3.08951354 7.13845238,3.31467627 7.13845238,3.59216554 C7.13845238,3.87124047 6.90663279,4.09481754 6.62131636,4.09481754 C6.33924216,4.09481754 6.10742256,3.86965482 6.10742256,3.59216554 C6.10742256,3.31309062 6.33924216,3.08951354 6.62131636,3.08951354 Z"/>
      </g>
    </g>
  </g>
</svg>
