<svg xmlns="http://www.w3.org/2000/svg" width="32" height="32" viewBox="0 0 32 32">
  <g fill="none">
    <circle cx="16" cy="16" r="16" fill="#80E9F8" opacity=".1"/>
    <rect width="23.333" height="23.333" fill="#000" opacity="0" transform="translate(4.667 4.667)"/>
    <g fill="#0190CC" opacity=".45" transform="translate(8 8)">
      <polygon points=".013 .581 .013 15.332 5.013 11.928 5.013 3.985"/>
      <polygon points="15.89 .581 10.89 4.064 10.89 11.928 15.89 15.332"/>
    </g>
    <path fill="#0190CC" d="M15.3073296,14.2383366 L16.5470387,15.4157946 L13.7911068,15.4157946 C13.5877588,15.4157946 13.4229128,15.5736287 13.4229128,15.7683269 L13.4229128,16.0718573 C13.4229128,16.2665555 13.5877588,16.4243896 13.7911068,16.4243896 L16.5470387,16.4243896 L15.3073296,17.6011426 C15.2375771,17.6672893 15.1983034,17.7573687 15.1982343,17.8513671 C15.1981651,17.9453654 15.2373063,18.0354977 15.3069614,18.1017385 L15.5341371,18.3178408 C15.6777034,18.4542924 15.909356,18.4542924 16.0529224,18.3178408 L18.3140016,16.1698613 C18.3837054,16.1036675 18.4229128,16.0135617 18.4229128,15.9195633 C18.4229128,15.8255649 18.3837054,15.7354591 18.3140016,15.6692653 L16.0525542,13.5223434 C15.9090311,13.3861249 15.6776602,13.3861249 15.5341371,13.5223434 L15.3073296,13.7373881 C15.2375123,13.8035956 15.1982327,13.8937772 15.1982327,13.9878624 C15.1982327,14.0819475 15.2375123,14.1721291 15.3073296,14.2383366 L15.3073296,14.2383366 Z" opacity=".45"/>
  </g>
</svg>
