<svg xmlns="http://www.w3.org/2000/svg" width="32" height="32" viewBox="0 0 32 32">
  <g fill="none" fill-rule="evenodd">
    <circle cx="16" cy="16" r="16" fill="#80E9F8" opacity=".098"/>
    <g fill="#0190CC" fill-rule="nonzero" opacity=".45" transform="translate(8 7)">
      <path d="M11.7669199,9.31334599 C9.46049724,9.31334599 7.58380525,11.1988087 7.58380525,13.4964434 C7.58380525,15.794078 9.46926796,17.679558 11.7669199,17.679558 C14.0645718,17.679558 15.9500173,15.7940953 15.9500173,13.4964434 C15.9500173,11.1987914 14.0645718,9.31334599 11.7669199,9.31334599 L11.7669199,9.31334599 Z M11.7669199,16.4956664 C11.4336671,16.4956664 11.1705801,16.2238087 11.1705801,15.8993267 C11.1705801,15.5748446 11.4424378,15.3029869 11.7669199,15.3029869 C12.0914019,15.3029869 12.3632597,15.5748446 12.3632597,15.8993267 C12.3632597,16.2238087 12.0913847,16.4956664 11.7669199,16.4956664 Z M12.3632597,13.5052141 C12.3632597,13.8384669 12.0913847,14.1015539 11.7669199,14.1015539 C11.4336671,14.1015539 11.1705801,13.8296961 11.1705801,13.5052141 L11.1705801,11.1111188 C11.1705801,10.777866 11.4424378,10.514779 11.7669199,10.514779 C12.0914019,10.514779 12.3632597,10.7866367 12.3632597,11.1111188 L12.3632597,13.5052141 Z"/>
      <path d="M6.42620856,14.0313881 L3.52348066,14.0313881 L3.52348066,12.2774689 L6.5402279,12.2774689 C6.68931285,11.6460635 6.95241713,11.0497238 7.3031768,10.5235497 L3.52348066,10.5235497 L3.52348066,8.76963052 L9.24126381,8.76963052 C9.99545925,8.36621202 10.8548688,8.13820787 11.7669199,8.13820787 C13.3805249,8.13820787 14.81875,8.84854972 15.8009323,9.97106354 L15.8009323,3.5078384 C15.8009323,2.54319751 15.0116713,1.7539192 14.0470131,1.7539192 L10.3813191,1.7539192 C10.0129834,0.736654006 9.04832528,0 7.90828729,0 C6.76824931,0 5.8035739,0.736654006 5.43525552,1.7539192 L1.7695442,1.7539192 C0.80488605,1.7539192 0.015625,2.54319751 0.015625,3.50785566 L0.015625,15.7853073 C0.015625,16.7499827 0.80488605,17.5392438 1.7695442,17.5392438 L8.24154006,17.5392438 C7.24179903,16.6622756 6.56654006,15.4257597 6.42622583,14.0313881 L6.42620856,14.0313881 Z M7.90828729,1.7539192 C8.39060773,1.7539192 8.78523826,2.14854972 8.78523826,2.63088743 C8.78523826,3.11322514 8.39060773,3.50785566 7.90828729,3.50785566 C7.42596685,3.50785566 7.03131906,3.11320787 7.03131906,2.63088743 C7.03131906,2.14856699 7.42594959,1.7539192 7.90828729,1.7539192 L7.90828729,1.7539192 Z M3.5234634,5.2617576 L12.2930939,5.2617576 L12.2930939,7.0156768 L3.5234634,7.0156768 L3.5234634,5.2617576 L3.5234634,5.2617576 Z"/>
    </g>
  </g>
</svg>
