<svg xmlns="http://www.w3.org/2000/svg" width="16" height="16" viewBox="0 0 16 16">
  <g fill="none" fill-rule="evenodd">
    <circle cx="8" cy="8" r="7.111" fill="#57C421" opacity=".1"/>
    <g fill-rule="nonzero" transform="scale(1 -1) rotate(45 22.761 1.886)">
      <rect width="10.667" height="10.667" fill="#000" opacity="0"/>
      <path fill="#57C421" d="M9.04166667,5.68229167 L5.584375,1.69791667 C5.45208333,1.54479167 5.21458333,1.54479167 5.08125,1.69791667 L1.625,5.68229167 C1.578125,5.73645833 1.61666667,5.81979167 1.6875,5.81979167 L2.53125,5.81979167 C2.57916667,5.81979167 2.625,5.79895833 2.65729167,5.7625 L4.9375,3.134375 L4.9375,9 C4.9375,9.04583333 4.975,9.08333333 5.02083333,9.08333333 L5.64583333,9.08333333 C5.69166667,9.08333333 5.72916667,9.04583333 5.72916667,9 L5.72916667,3.134375 L8.009375,5.7625 C8.040625,5.79895833 8.08645833,5.81979167 8.13541667,5.81979167 L8.97916667,5.81979167 C9.05,5.81979167 9.08854167,5.73645833 9.04166667,5.68229167 Z"/>
    </g>
  </g>
</svg>
