<svg xmlns="http://www.w3.org/2000/svg" width="16" height="16" viewBox="0 0 16 16">
  <path fill="#666" d="M9.4481093,0.5 C9.69356919,0.5 9.89771767,0.676875161 9.94005363,0.910124368 L9.9481093,1 L9.948,2.697 L10.1856114,2.78396569 C10.5801765,2.93886426 10.9549281,3.13506582 11.3035691,3.36860352 L11.5600557,3.55069534 L11.762,3.711 L13.3053605,2.85097265 C13.4889886,2.74851074 13.7100952,2.77401277 13.8645516,2.89960065 L13.926363,2.95947045 L13.9781916,3.031108 L15.427267,5.455908 C15.5558422,5.67105849 15.5037591,5.94283326 15.3176543,6.09705796 L15.2416739,6.14904187 L13.714,7.001 L13.7459804,7.17268575 L13.7826643,7.4484108 L13.7826643,7.4484108 L13.8048573,7.72409534 L13.8123102,8 C13.8123102,8.18276044 13.8024281,8.36561358 13.7830272,8.54894152 L13.7468321,8.82433729 L13.714,8.998 L15.243606,9.85189146 C15.4351272,9.9587427 15.5285015,10.1722622 15.4924858,10.3757669 L15.4690375,10.4620298 L15.4291991,10.5450253 L13.9801237,12.9698253 C13.856863,13.1760828 13.6077256,13.2620625 13.3880736,13.1861514 L13.3073896,13.1500148 L11.763,12.288 L11.5599412,12.4502703 C11.2246197,12.7019351 10.8619921,12.9173569 10.4781256,13.0926512 L10.1863381,13.2165372 L9.949,13.302 L9.94907535,15 C9.94907535,15.2147774 9.81365531,15.3979258 9.62354155,15.4687187 L9.53895098,15.4919443 L9.44907535,15.5 L6.55092465,15.5 C6.30546476,15.5 6.10131628,15.3231248 6.05898032,15.0898756 L6.05092465,15 L6.05,13.302 L5.81342259,13.2160343 C5.41885746,13.0611357 5.04410582,12.8649342 4.69546485,12.6313965 L4.43897827,12.4493047 L4.235,12.288 L2.69261038,13.1490815 C2.50898885,13.2514862 2.28792396,13.2259608 2.13349615,13.1003828 L2.07169606,13.0405192 L2.01987627,12.968892 L0.570800918,10.544092 C0.442225666,10.3289415 0.494308821,10.0571667 0.680413562,9.90294204 L0.756394015,9.85095813 L2.284,8.998 L2.25213105,8.82730743 L2.21543263,8.55143889 L2.21543263,8.55143889 L2.19322032,8.27570881 L2.18575766,8 C2.18575766,7.81593227 2.19575029,7.63218504 2.21540357,7.4484108 L2.25208746,7.17268575 L2.284,7.001 L0.756394015,6.14904187 C0.564872756,6.04219063 0.471498486,5.82867108 0.50751423,5.62516644 L0.530962474,5.53890351 L0.570800918,5.455908 L2.01987627,3.031108 C2.14315662,2.82481769 2.39234875,2.73884825 2.61201861,2.81481365 L2.69270736,2.85097265 L4.235,3.712 L4.43848062,3.55071211 C4.77371325,3.29887844 5.1364693,3.08325565 5.52048458,2.90777256 L5.81238426,2.78374783 L6.049,2.697 L6.0499586,1 C6.0499586,0.785222597 6.18537864,0.602074241 6.3754924,0.531281263 L6.46008297,0.508055669 L6.5499586,0.5 L9.4481093,0.5 Z M8.948,1.5 L7.049,1.5 L7.0499586,3.06453333 C7.0499586,3.23345263 6.96525575,3.38673444 6.83126898,3.47794182 L6.76033258,3.51815766 L6.68216604,3.54673785 C5.91118554,3.75811986 5.2112027,4.15000137 4.64106581,4.68460368 C4.50498461,4.81220343 4.31155328,4.85179041 4.13938047,4.79371496 L4.05542954,4.75649402 L2.629,3.961 L1.693,5.526 L3.09552428,6.30895813 C3.24455756,6.39210498 3.33738852,6.54285788 3.35038911,6.70595854 L3.35012748,6.78828202 L3.33590445,6.8711285 C3.23677705,7.25332289 3.18575766,7.62760436 3.18575766,8 C3.18575766,8.37181649 3.23688331,8.74708683 3.33590445,9.1288715 C3.38589029,9.32159629 3.31649798,9.52258531 3.16524801,9.64409043 L3.09552428,9.69104187 L1.693,10.473 L2.629,12.039 L4.05649257,11.2434519 C4.19232547,11.1676986 4.35202017,11.1609553 4.49002857,11.2176077 L4.56986687,11.2591617 L4.64231415,11.3156612 C5.21155959,11.8502565 5.91131277,12.2417932 6.68250604,12.4521576 C6.87283553,12.5040753 7.01215891,12.6618329 7.04401586,12.8515063 L7.05092465,12.9345333 L7.05,14.5 L8.949,14.5 L8.94907535,12.9354667 C8.94907535,12.7665074 9.0338175,12.6131971 9.16785281,12.5219984 L9.23881411,12.48179 L9.31700624,12.4532242 C10.0878409,12.2421199 10.7871739,11.8506931 11.3582592,11.316057 C11.4943245,11.188676 11.6875854,11.1491916 11.8596213,11.2072077 L11.9435074,11.2443852 L13.37,12.04 L14.306,10.474 L12.9044757,9.6919752 C12.7560588,9.6091722 12.6633234,9.45927351 12.649764,9.2968425 L12.649691,9.21483524 L12.6634667,9.13225491 C12.7616274,8.74575201 12.8123102,8.37034333 12.8123102,8 C12.8123102,7.62760436 12.7612909,7.25332289 12.6621634,6.8711285 C12.6121776,6.67840371 12.6815699,6.47741469 12.8328199,6.35590957 L12.9025436,6.30895813 L14.304,5.526 L13.368,3.961 L11.9426384,4.75649402 C11.8067967,4.83229176 11.6470715,4.83905791 11.5090355,4.78240472 L11.4291812,4.74084737 L11.3567198,4.68433878 C10.7874744,4.14974353 10.0877212,3.75820679 9.31652791,3.54784239 C9.12619842,3.49592473 8.98687504,3.33816708 8.95501809,3.14849374 L8.9481093,3.06546667 L8.948,1.5 Z M8,5.5 C9.38071187,5.5 10.5,6.61928813 10.5,8 C10.5,9.38071187 9.38071187,10.5 8,10.5 C6.61928813,10.5 5.5,9.38071187 5.5,8 C5.5,6.61928813 6.61928813,5.5 8,5.5 Z M8,6.5 C7.17157288,6.5 6.5,7.17157288 6.5,8 C6.5,8.82842712 7.17157288,9.5 8,9.5 C8.82842712,9.5 9.5,8.82842712 9.5,8 C9.5,7.17157288 8.82842712,6.5 8,6.5 Z"/>
</svg>
